<?xml version="1.0" encoding="UTF-8" standalone="no"?>
<!-- Created with Inkscape (http://www.inkscape.org/) -->

<svg
   width="43.973591mm"
   height="6.2249999mm"
   viewBox="0 0 43.973591 6.2249999"
   version="1.1"
   id="svg5"
   inkscape:version="1.1 (c68e22c387, 2021-05-23)"
   sodipodi:docname="clearice_logo.svg"
   inkscape:export-filename="/home/ekow/clearice_logo.png"
   inkscape:export-xdpi="95.972198"
   inkscape:export-ydpi="95.972198"
   xmlns:inkscape="http://www.inkscape.org/namespaces/inkscape"
   xmlns:sodipodi="http://sodipodi.sourceforge.net/DTD/sodipodi-0.dtd"
   xmlns="http://www.w3.org/2000/svg"
   xmlns:svg="http://www.w3.org/2000/svg">
  <sodipodi:namedview
     id="namedview7"
     pagecolor="#ffffff"
     bordercolor="#666666"
     borderopacity="1.0"
     inkscape:pageshadow="2"
     inkscape:pageopacity="0.0"
     inkscape:pagecheckerboard="0"
     inkscape:document-units="mm"
     showgrid="false"
     fit-margin-top="0"
     fit-margin-left="0"
     fit-margin-right="0"
     fit-margin-bottom="0"
     inkscape:zoom="3.2035073"
     inkscape:cx="67.426099"
     inkscape:cy="47.135838"
     inkscape:window-width="1920"
     inkscape:window-height="1043"
     inkscape:window-x="0"
     inkscape:window-y="0"
     inkscape:window-maximized="1"
     inkscape:current-layer="layer1" />
  <defs
     id="defs2" />
  <g
     inkscape:label="Layer 1"
     inkscape:groupmode="layer"
     id="layer1"
     transform="translate(-4.5035424,-17.218)">
    <path
       d="m 13.161731,48.197351 c 0,1.555745 1.333496,2.688158 3.153823,2.688158 0.772581,0 1.502829,-0.190499 1.968494,-0.507998 0.380999,-0.264583 0.582081,-0.529165 0.582081,-0.772581 0,-0.296333 -0.264582,-0.550332 -0.571498,-0.550332 -0.148166,0 -0.285749,0.05292 -0.412749,0.179916 -0.275165,0.264583 -0.275165,0.264583 -0.380998,0.328082 -0.275166,0.148167 -0.677332,0.232833 -1.15358,0.232833 -1.248829,0 -2.042577,-0.634998 -2.042577,-1.619245 v -0.645581 c 0,-1.05833 0.761998,-1.809744 1.820328,-1.809744 0.359832,0 0.719664,0.08467 1.005413,0.243416 0.296333,0.158749 0.402166,0.275165 0.444499,0.507998 0.07408,0.412749 0.232832,0.571498 0.560915,0.571498 0.179916,0 0.349249,-0.08467 0.465665,-0.222249 0.08467,-0.105833 0.105833,-0.222249 0.105833,-0.486832 v -0.846664 c 0,-0.264582 -0.01058,-0.349249 -0.08467,-0.455082 -0.105833,-0.158749 -0.285749,-0.253999 -0.486831,-0.253999 -0.1905,0 -0.317499,0.0635 -0.455082,0.232833 -0.730248,-0.317499 -1.005414,-0.380999 -1.598079,-0.380999 -1.661578,0 -2.92099,1.248829 -2.92099,2.889241 z"
       style="font-weight:bold;font-size:10.5833px;line-height:1.25;font-family:'Nimbus Mono PS';-inkscape-font-specification:'Nimbus Mono PS Bold';letter-spacing:0px;word-spacing:0px;fill:#a8274e;fill-opacity:1;stroke-width:0.264583"
       id="path19357" />
    <path
       d="m 21.956437,45.869025 h 0.560915 c 0.243415,0 0.370415,-0.02117 0.465665,-0.07408 0.169333,-0.105833 0.275166,-0.285749 0.275166,-0.476249 0,-0.169332 -0.08467,-0.328082 -0.232833,-0.433915 -0.116416,-0.08467 -0.211666,-0.105833 -0.507998,-0.105833 h -2.264827 c -0.285749,0 -0.359832,0.01058 -0.465665,0.07408 -0.169333,0.105833 -0.275166,0.275166 -0.275166,0.465665 0,0.179916 0.08467,0.349249 0.232833,0.444499 0.116416,0.08467 0.232833,0.105833 0.507998,0.105833 h 0.560915 v 3.788821 h -0.560915 c -0.275165,0 -0.359832,0.01058 -0.465665,0.07408 -0.169333,0.105833 -0.275166,0.275166 -0.275166,0.465665 0,0.370416 0.254,0.550332 0.740831,0.550332 h 5.037651 v -1.979074 c 0,-0.264583 -0.02117,-0.359832 -0.08467,-0.455082 -0.105833,-0.169333 -0.285749,-0.264582 -0.486832,-0.264582 -0.1905,0 -0.349249,0.07408 -0.465665,0.222249 -0.08467,0.116416 -0.105833,0.211666 -0.105833,0.497415 v 0.888997 h -2.190743 z"
       style="font-weight:bold;font-size:10.5833px;line-height:1.25;font-family:'Nimbus Mono PS';-inkscape-font-specification:'Nimbus Mono PS Bold';letter-spacing:0px;word-spacing:0px;fill:#a8274e;fill-opacity:1;stroke-width:0.264583"
       id="path19359" />
    <path
       d="m 29.30123,45.869025 h 1.02658 c 0.243416,0 0.370416,-0.02117 0.465665,-0.07408 0.169333,-0.105833 0.275166,-0.285749 0.275166,-0.476249 0,-0.169332 -0.08467,-0.328082 -0.232833,-0.433915 -0.116416,-0.08467 -0.211666,-0.105833 -0.507998,-0.105833 h -3.196156 c -0.275166,0 -0.359833,0.01058 -0.465666,0.07408 -0.169332,0.105833 -0.275165,0.285749 -0.275165,0.465665 0,0.179916 0.08467,0.349249 0.232832,0.444499 0.116417,0.08467 0.232833,0.105833 0.507999,0.105833 h 1.02658 v 3.788821 h -1.02658 c -0.275166,0 -0.359833,0.01058 -0.465666,0.07408 -0.169332,0.105833 -0.275165,0.285749 -0.275165,0.465665 0,0.370416 0.253999,0.550332 0.740831,0.550332 h 3.196156 c 0.486832,0 0.740831,-0.179916 0.740831,-0.550332 0,-0.169332 -0.08467,-0.328082 -0.232833,-0.433915 -0.116416,-0.08467 -0.222249,-0.105833 -0.507998,-0.105833 h -1.02658 z"
       style="font-weight:bold;font-size:10.5833px;line-height:1.25;font-family:'Nimbus Mono PS';-inkscape-font-specification:'Nimbus Mono PS Bold';letter-spacing:0px;word-spacing:0px;fill:#2e5f82;fill-opacity:1;stroke-width:0.264583"
       id="path19361" />
    <rect
       style="fill:#000000;fill-opacity:1;stroke:none;stroke-width:0.192411;stroke-linejoin:round;stroke-opacity:1;stop-color:#000000"
       id="rect19712"
       width="7.4510002"
       height="6.2550001"
       x="0"
       y="0"
       rx="1"
       ry="1" />
    <path
       d="M 3.852407,3.111573 1.238332,4.392152 C 0.931417,4.550902 0.815,4.677901 0.815,4.878984 c 0,0.07408 0.02117,0.158749 0.0635,0.243416 l 0.01058,0.02117 c 0.08467,0.179916 0.328083,0.296333 0.592665,0.296333 0.15875,0 0.306916,-0.03175 0.444499,-0.09525 L 6.6358115,3.100994 1.926244,0.91025 C 1.788661,0.84675 1.640495,0.815 1.481745,0.815 1.217163,0.815 0.973747,0.931416 0.88908,1.111332 L 0.8785,1.132502 C 0.83617,1.217172 0.815,1.301835 0.815,1.386501 c 0,0.179916 0.137583,0.338666 0.412749,0.476248 z"
       style="font-weight:bold;font-size:10.5833px;line-height:1.25;font-family:'Nimbus Mono PS';-inkscape-font-specification:'Nimbus Mono PS Bold';letter-spacing:0px;word-spacing:0px;fill:#ffffff;fill-opacity:1;stroke-width:0.264583"
       id="path19355" />
    <g
       id="g20509">
      <path
         d="m 8.3338758,3.5316926 c 0,1.5405306 1.3204548,2.6618692 3.1229802,2.6618692 0.765026,0 1.488132,-0.1886364 1.949243,-0.5030304 0.377273,-0.261995 0.576389,-0.52399 0.576389,-0.7650254 0,-0.2934344 -0.261995,-0.5449496 -0.565909,-0.5449496 -0.146717,0 -0.282955,0.052399 -0.408712,0.1781566 -0.272475,0.261995 -0.272475,0.261995 -0.377273,0.3248738 -0.272475,0.1467172 -0.670707,0.2305556 -1.142298,0.2305556 -1.236617,0 -2.0226018,-0.628788 -2.0226018,-1.6034094 V 2.8714651 c 0,-1.04798 0.7545458,-1.7920458 1.8025258,-1.7920458 0.356313,0 0.712626,0.083838 0.995581,0.2410354 0.293434,0.157197 0.398232,0.2724748 0.440151,0.5030304 0.07336,0.4087122 0.230556,0.5659092 0.55543,0.5659092 0.178157,0 0.345833,-0.083838 0.461111,-0.2200758 0.08384,-0.104798 0.104798,-0.2200758 0.104798,-0.4820708 v -0.838384 c 0,-0.26199501 -0.01048,-0.34583341 -0.08384,-0.45063141 -0.104798,-0.15719701 -0.282955,-0.25151521 -0.482071,-0.25151521 -0.188637,0 -0.314394,0.0628788 -0.450632,0.23055561 C 12.085644,0.06287868 11.813169,-1.2016296e-7 11.226301,-1.2016296e-7 9.580972,-1.2016296e-7 8.3338758,1.2366163 8.3338758,2.8609853 Z"
         style="font-weight:bold;font-size:10.4798px;line-height:1.25;font-family:'Nimbus Mono PS';-inkscape-font-specification:'Nimbus Mono PS Bold';letter-spacing:0px;word-spacing:0px;fill:#a8274e;stroke-width:0.261995"
         id="path20185" />
      <path
         d="m 17.042574,1.2261365 h 0.555429 c 0.241036,0 0.366793,-0.02096 0.461111,-0.073359 0.167677,-0.104798 0.272475,-0.2829546 0.272475,-0.47159101 0,-0.1676768 -0.08384,-0.3248738 -0.230555,-0.4296718 -0.115278,-0.0838384 -0.209596,-0.10479801 -0.503031,-0.10479801 h -2.242677 c -0.282955,0 -0.356313,0.0104798 -0.461111,0.0733586 -0.167677,0.10479801 -0.272475,0.27247481 -0.272475,0.46111121 0,0.17815661 0.08384,0.34583341 0.230556,0.44015161 0.115277,0.083838 0.230555,0.104798 0.50303,0.104798 h 0.555429 V 4.977905 h -0.555429 c -0.272475,0 -0.356313,0.01048 -0.461111,0.073359 -0.167677,0.104798 -0.272475,0.2724748 -0.272475,0.4611112 0,0.366793 0.251515,0.5449496 0.733586,0.5449496 h 4.988385 v -1.959723 c 0,-0.261995 -0.02096,-0.3563132 -0.08384,-0.4506314 -0.104798,-0.1676768 -0.282955,-0.261995 -0.482071,-0.261995 -0.188637,0 -0.345834,0.073359 -0.461111,0.2200758 -0.08384,0.1152778 -0.104799,0.209596 -0.104799,0.4925506 V 4.977905 h -2.169318 z"
         style="font-weight:bold;font-size:10.4798px;line-height:1.25;font-family:'Nimbus Mono PS';-inkscape-font-specification:'Nimbus Mono PS Bold';letter-spacing:0px;word-spacing:0px;fill:#a8274e;stroke-width:0.261995"
         id="path20187" />
      <path
         d="m 43.179132,1.2261365 h 1.016541 c 0.241035,0 0.366793,-0.02096 0.461111,-0.073359 0.167677,-0.104798 0.272475,-0.2829546 0.272475,-0.47159101 0,-0.1676768 -0.08384,-0.3248738 -0.230556,-0.4296718 -0.115277,-0.0838384 -0.209596,-0.10479801 -0.50303,-0.10479801 h -3.1649 c -0.272474,0 -0.356313,0.0104798 -0.461111,0.0733586 -0.167677,0.10479801 -0.272475,0.28295461 -0.272475,0.46111121 0,0.17815661 0.08384,0.34583341 0.230556,0.44015161 0.115278,0.083838 0.230556,0.104798 0.50303,0.104798 h 1.016541 V 4.977905 h -1.016541 c -0.272474,0 -0.356313,0.01048 -0.461111,0.073359 -0.167677,0.104798 -0.272475,0.2829546 -0.272475,0.4611112 0,0.366793 0.251516,0.5449496 0.733586,0.5449496 h 3.1649 c 0.482071,0 0.733586,-0.1781566 0.733586,-0.5449496 0,-0.1676768 -0.08384,-0.3248738 -0.230556,-0.4296718 -0.115277,-0.083838 -0.220075,-0.104798 -0.50303,-0.104798 h -1.016541 z"
         style="font-weight:bold;font-size:10.4798px;line-height:1.25;font-family:'Nimbus Mono PS';-inkscape-font-specification:'Nimbus Mono PS Bold';letter-spacing:0px;word-spacing:0px;fill:#a8274e;stroke-width:0.261995"
         id="path20195" />
    </g>
    <g
       id="g20516"
       style="fill:#e07d9b;fill-opacity:1">
      <path
         d="M 26.118065,4.0137634 V 3.929925 3.8565664 c 0,-1.3414145 -1.04798,-2.3369955 -2.452273,-2.3369955 -1.383334,0 -2.452274,0.9851012 -2.452274,2.2531571 0,1.3833336 1.142299,2.4522732 2.598991,2.4522732 1.01654,0 2.263637,-0.5030304 2.263637,-0.9012628 0,-0.1467172 -0.115278,-0.261995 -0.261995,-0.261995 -0.06288,0 -0.104798,0.02096 -0.188637,0.083838 -0.419192,0.314394 -1.173737,0.5449496 -1.802525,0.5449496 -1.0899,0 -1.907324,-0.6707072 -2.054041,-1.676768 z M 21.768948,3.4792936 c 0.178156,-0.8593437 0.932702,-1.4252529 1.896844,-1.4252529 0.953661,0 1.718687,0.576389 1.886364,1.4252529 z"
         style="font-weight:normal;font-size:10.4798px;line-height:1.25;letter-spacing:0px;word-spacing:0px;fill:#e07d9b;fill-opacity:1;stroke-width:0.261995"
         id="path20189" />
      <path
         d="m 31.232191,6.0573244 h 1.05846 c 0.220076,0 0.335353,-0.094318 0.335353,-0.2724748 0,-0.1676768 -0.115277,-0.261995 -0.335353,-0.261995 h -0.51351 V 2.8400257 c 0,-0.7650254 -0.744066,-1.3204548 -1.750127,-1.3204548 -0.398232,0 -1.079419,0.1362374 -1.655808,0.3353536 -0.146718,0.052399 -0.220076,0.1362374 -0.220076,0.261995 0,0.1467172 0.115278,0.261995 0.251515,0.261995 0.0524,0 0.08384,-0.01048 0.220076,-0.052399 0.597348,-0.1886364 1.0375,-0.2724748 1.372854,-0.2724748 0.733586,0 1.236616,0.314394 1.236616,0.785985 V 3.4897734 C 30.603403,3.3325764 30.341408,3.301137 29.869817,3.301137 c -1.362374,0 -2.274117,0.628788 -2.274117,1.5614902 0,0.8069446 0.681187,1.362374 1.687248,1.362374 0.723106,0 1.299495,-0.2305556 1.949243,-0.785985 z m 0,-1.2366164 c -0.681187,0.628788 -1.226137,0.8698234 -1.949243,0.8698234 -0.702146,0 -1.142298,-0.3248738 -1.142298,-0.8279042 0,-0.6078284 0.733586,-1.0270204 1.781566,-1.0270204 0.461111,0 0.964142,0.052399 1.309975,0.1362374 z"
         style="font-weight:normal;font-size:10.4798px;line-height:1.25;letter-spacing:0px;word-spacing:0px;fill:#e07d9b;fill-opacity:1;stroke-width:0.261995"
         id="path20191" />
      <path
         d="m 35.853767,1.6662881 h -1.268055 c -0.220076,0 -0.345834,0.094318 -0.345834,0.261995 0,0.1676768 0.125758,0.2724748 0.345834,0.2724748 h 0.723106 v 3.3220967 h -0.953662 c -0.220076,0 -0.345833,0.104798 -0.345833,0.261995 0,0.1781566 0.125757,0.2724748 0.345833,0.2724748 h 3.322097 c 0.209596,0 0.335353,-0.094318 0.335353,-0.2724748 0,-0.157197 -0.125757,-0.261995 -0.335353,-0.261995 H 35.853767 V 3.3430562 c 1.131819,-1.0165407 1.477652,-1.2470963 1.928284,-1.2470963 0.209596,0 0.398232,0.094318 0.649747,0.3458334 0.08384,0.073359 0.115278,0.094318 0.209596,0.094318 0.157197,0 0.272475,-0.1152778 0.272475,-0.2829546 0,-0.104798 -0.06288,-0.1991162 -0.261995,-0.3563132 -0.282954,-0.2410354 -0.51351,-0.3353536 -0.838384,-0.3353536 -0.544949,0 -1.0375,0.2724748 -1.959723,1.0898992 z"
         style="font-weight:normal;font-size:10.4798px;line-height:1.25;letter-spacing:0px;word-spacing:0px;fill:#e07d9b;fill-opacity:1;stroke-width:0.261995"
         id="path20193" />
      <path
         d="m 50.640733,2.0226013 c -0.419192,-0.3248738 -0.974622,-0.5030304 -1.59293,-0.5030304 -1.435732,0 -2.462753,0.995581 -2.462753,2.3893945 0,1.3518942 1.006061,2.3160358 2.420834,2.3160358 0.702147,0 1.393813,-0.1991162 1.949243,-0.576389 0.314394,-0.209596 0.471591,-0.3982324 0.471591,-0.5449496 0,-0.1362374 -0.115278,-0.2515152 -0.251515,-0.2515152 -0.08384,0 -0.136238,0.02096 -0.230556,0.1152778 -0.52399,0.4820708 -1.163258,0.7231062 -1.917803,0.7231062 -1.110859,0 -1.896844,-0.733586 -1.896844,-1.7920458 0,-1.1003791 0.765025,-1.8444449 1.886364,-1.8444449 0.859343,0 1.56149,0.3982324 1.624369,0.9222224 0.02096,0.209596 0.104798,0.2934344 0.261995,0.2934344 0.178156,0 0.272475,-0.1152778 0.272475,-0.3248738 v -0.943182 c 0,-0.2200758 -0.09432,-0.3353536 -0.272475,-0.3353536 -0.178157,0 -0.261995,0.1152778 -0.261995,0.3353536 z"
         style="font-weight:normal;font-size:10.4798px;line-height:1.25;letter-spacing:0px;word-spacing:0px;fill:#e07d9b;fill-opacity:1;stroke-width:0.261995"
         id="path20197" />
      <path
         d="M 57.557385,4.0137634 V 3.929925 3.8565664 c 0,-1.3414145 -1.04798,-2.3369955 -2.452273,-2.3369955 -1.383333,0 -2.452273,0.9851012 -2.452273,2.2531571 0,1.3833336 1.142298,2.4522732 2.59899,2.4522732 1.016541,0 2.263637,-0.5030304 2.263637,-0.9012628 0,-0.1467172 -0.115278,-0.261995 -0.261995,-0.261995 -0.06288,0 -0.104798,0.02096 -0.188636,0.083838 -0.419192,0.314394 -1.173738,0.5449496 -1.802526,0.5449496 -1.089899,0 -1.907323,-0.6707072 -2.054041,-1.676768 z M 53.208268,3.4792936 c 0.178157,-0.8593437 0.932703,-1.4252529 1.896844,-1.4252529 0.953662,0 1.718687,0.576389 1.886364,1.4252529 z"
         style="font-weight:normal;font-size:10.4798px;line-height:1.25;letter-spacing:0px;word-spacing:0px;fill:#e07d9b;fill-opacity:1;stroke-width:0.261995"
         id="path20199" />
    </g>
    <rect
       style="fill:#000000;fill-opacity:1;stroke:none;stroke-width:0.191488;stroke-linejoin:round;stroke-opacity:1;stop-color:#000000"
       id="rect19712-6"
       width="7.4152651"
       height="6.2249999"
       x="4.5035424"
       y="17.218"
       rx="0.99520385"
       ry="0.99520385" />
    <path
       d="m 8.3374679,20.314651 -2.6015362,1.274437 c -0.3054449,0.158005 -0.4213037,0.284379 -0.4213037,0.484496 0,0.07371 0.021143,0.157971 0.063191,0.242249 l 0.010535,0.02114 c 0.084262,0.179041 0.32651,0.294912 0.5898234,0.294912 0.1580055,0 0.3054428,-0.03161 0.4423674,-0.0948 L 11.107528,20.304192 6.4205455,18.123954 c -0.1369312,-0.06319 -0.2843771,-0.0948 -0.4423674,-0.0948 -0.2633134,0 -0.5055629,0.115875 -0.5898234,0.294912 l -0.010535,0.02115 c -0.042134,0.08426 -0.063191,0.168521 -0.063191,0.252777 0,0.179063 0.1369312,0.337041 0.4107698,0.473965 z"
       style="font-weight:bold;font-size:10.5833px;line-height:1.25;font-family:'Nimbus Mono PS';-inkscape-font-specification:'Nimbus Mono PS Bold';letter-spacing:0px;word-spacing:0px;fill:#ffffff;fill-opacity:1;stroke-width:0.263313"
       id="path19355-7" />
    <path
       d="m -8.7237135,34.254966 c -0.225505,-0.174766 -0.5243,-0.270606 -0.85692,-0.270606 -0.7723545,0 -1.3248415,0.535574 -1.3248415,1.285379 0,0.727255 0.541212,1.245916 1.3022915,1.245916 0.377721,0 0.749804,-0.107114 1.048599,-0.31007 0.169129,-0.112752 0.253693,-0.214229 0.253693,-0.293156 0,-0.07329 -0.06201,-0.135304 -0.135303,-0.135304 -0.0451,0 -0.07329,0.01127 -0.124028,0.06201 -0.281881,0.259332 -0.625777,0.388997 -1.031686,0.388997 -0.5975885,0 -1.0204105,-0.394634 -1.0204105,-0.964034 0,-0.591952 0.411547,-0.992223 1.0147725,-0.992223 0.462286,0 0.840007,0.21423 0.873833,0.496111 0.01127,0.112753 0.05638,0.157854 0.140941,0.157854 0.09584,0 0.146578,-0.06201 0.146578,-0.174766 v -0.507387 c 0,-0.11839 -0.05074,-0.180405 -0.146578,-0.180405 -0.09584,0 -0.140941,0.06201 -0.140941,0.180405 z"
       style="font-size:10.5833px;line-height:1.25;font-family:'nimbus mono ps';-inkscape-font-specification:'nimbus mono ps';letter-spacing:0px;word-spacing:0px;fill:#d44e4e;fill-opacity:1;stroke-width:0.140941"
       id="path42655" />
    <path
       d="m -6.1304125,33.025963 h -0.918934 c -0.124028,0 -0.186042,0.05074 -0.186042,0.140941 0,0.09584 0.06201,0.146578 0.186042,0.146578 h 0.625777 v 2.824452 h -0.873833 c -0.11839,0 -0.180404,0.05074 -0.180404,0.140941 0,0.09584 0.06201,0.146579 0.180404,0.146579 h 2.040823 c 0.118389,0 0.186041,-0.05074 0.186041,-0.146579 0,-0.09021 -0.06201,-0.140941 -0.186041,-0.140941 h -0.873833 z"
       style="font-size:10.5833px;line-height:1.25;font-family:'nimbus mono ps';-inkscape-font-specification:'nimbus mono ps';letter-spacing:0px;word-spacing:0px;fill:#d44e4e;fill-opacity:1;stroke-width:0.140941"
       id="path42657" />
    <path
       d="m -1.6203185,35.326115 v -0.0451 -0.03947 c 0,-0.721617 -0.563763,-1.257191 -1.319205,-1.257191 -0.744167,0 -1.319205,0.529937 -1.319205,1.212089 0,0.744168 0.614502,1.319205 1.398132,1.319205 0.546849,0 1.217728,-0.270606 1.217728,-0.484835 0,-0.07893 -0.06201,-0.140941 -0.140941,-0.140941 -0.03383,0 -0.05638,0.01127 -0.101477,0.0451 -0.225506,0.169129 -0.631414,0.293158 -0.969673,0.293158 -0.586313,0 -1.026048,-0.360809 -1.104975,-0.902022 z m -2.339616,-0.287518 c 0.09584,-0.462286 0.50175,-0.766718 1.020411,-0.766718 0.513024,0 0.924571,0.31007 1.014773,0.766718 z"
       style="font-size:10.5833px;line-height:1.25;font-family:'nimbus mono ps';-inkscape-font-specification:'nimbus mono ps';letter-spacing:0px;word-spacing:0px;fill:#f19090;fill-opacity:1;stroke-width:0.140941"
       id="path42659" />
    <path
       d="m 1.1308355,36.425454 h 0.5694 c 0.118391,0 0.180405,-0.05074 0.180405,-0.146579 0,-0.09021 -0.06201,-0.140941 -0.180405,-0.140941 h -0.276243 v -1.443232 c 0,-0.411547 -0.400272,-0.710342 -0.94148498,-0.710342 -0.214229,0 -0.580675,0.07329 -0.890744,0.180404 -0.07892,0.02819 -0.118391,0.07329 -0.118391,0.140941 0,0.07892 0.06201,0.14094 0.135304,0.14094 0.02819,0 0.0451,-0.0056 0.118389,-0.02819 0.321345,-0.101477 0.558126,-0.146578 0.73853,-0.146578 0.394633,0 0.66523998,0.169129 0.66523998,0.422822 v 0.349536 C 0.79257752,34.959675 0.65163652,34.94276 0.39794352,34.94276 c -0.732891,0 -1.223365,0.338257 -1.223365,0.840006 0,0.434098 0.366446,0.732892 0.907658,0.732892 0.388997,0 0.699066,-0.124028 1.04859898,-0.422822 z m 0,-0.665241 c -0.36644598,0.338258 -0.65960198,0.467923 -1.04859898,0.467923 -0.377721,0 -0.614501,-0.174766 -0.614501,-0.445373 0,-0.326982 0.394634,-0.552487 0.958396,-0.552487 0.248057,0 0.518663,0.02819 0.70470398,0.07329 z"
       style="font-size:10.5833px;line-height:1.25;font-family:'nimbus mono ps';-inkscape-font-specification:'nimbus mono ps';letter-spacing:0px;word-spacing:0px;fill:#f19090;fill-opacity:1;stroke-width:0.140941"
       id="path42661" />
    <path
       d="m 3.6170215,34.063286 h -0.682153 c -0.11839,0 -0.186042,0.05074 -0.186042,0.140941 0,0.09021 0.06765,0.146579 0.186042,0.146579 h 0.388997 v 1.787128 h -0.513025 c -0.118391,0 -0.186042,0.05638 -0.186042,0.140941 0,0.09584 0.06765,0.146579 0.186042,0.146579 h 1.787129 c 0.112752,0 0.180403,-0.05074 0.180403,-0.146579 0,-0.08457 -0.06765,-0.140941 -0.180403,-0.140941 h -0.980948 v -1.172626 c 0.608864,-0.546851 0.794906,-0.670879 1.037324,-0.670879 0.112752,0 0.21423,0.05074 0.349532,0.186042 0.0451,0.03947 0.06201,0.05074 0.112753,0.05074 0.08456,0 0.146579,-0.06201 0.146579,-0.152216 0,-0.05638 -0.03383,-0.107115 -0.140941,-0.191679 -0.152216,-0.129665 -0.276244,-0.180405 -0.45101,-0.180405 -0.293157,0 -0.558126,0.146579 -1.054237,0.586314 z"
       style="font-size:10.5833px;line-height:1.25;font-family:'nimbus mono ps';-inkscape-font-specification:'nimbus mono ps';letter-spacing:0px;word-spacing:0px;fill:#f19090;fill-opacity:1;stroke-width:0.140941"
       id="path42663" />
    <path
       d="m 7.3998615,34.063286 h -0.930208 c -0.124028,0 -0.180404,0.0451 -0.180404,0.140941 0,0.09584 0.06201,0.146579 0.180404,0.146579 h 0.637052 v 1.787128 h -0.873832 c -0.118391,0 -0.180405,0.05074 -0.180405,0.140941 0,0.09584 0.06201,0.146579 0.180405,0.146579 h 2.040821 c 0.11839,0 0.186042,-0.05074 0.186042,-0.146579 0,-0.09021 -0.06201,-0.140941 -0.186042,-0.140941 h -0.873833 z m -0.01127,-1.144438 H 6.9939575 V 33.5559 h 0.394634 z"
       style="font-size:10.5833px;line-height:1.25;font-family:'nimbus mono ps';-inkscape-font-specification:'nimbus mono ps';letter-spacing:0px;word-spacing:0px;fill:#d44e4e;fill-opacity:1;stroke-width:0.140941"
       id="path42665" />
    <path
       d="M 11.571698,34.254966 C 11.346193,34.0802 11.047399,33.98436 10.714779,33.98436 c -0.7723565,0 -1.3248435,0.535574 -1.3248435,1.285379 0,0.727255 0.541213,1.245916 1.3022925,1.245916 0.377722,0 0.749804,-0.107114 1.048599,-0.31007 0.169129,-0.112752 0.253694,-0.214229 0.253694,-0.293156 0,-0.07329 -0.06201,-0.135304 -0.135304,-0.135304 -0.0451,0 -0.07329,0.01127 -0.124027,0.06201 -0.281881,0.259332 -0.625777,0.388997 -1.031686,0.388997 -0.597589,0 -1.0204115,-0.394634 -1.0204115,-0.964034 0,-0.591952 0.4115465,-0.992223 1.0147735,-0.992223 0.462285,0 0.840007,0.21423 0.873832,0.496111 0.01127,0.112753 0.05638,0.157854 0.14094,0.157854 0.09584,0 0.146579,-0.06201 0.146579,-0.174766 v -0.507387 c 0,-0.11839 -0.05074,-0.180405 -0.146579,-0.180405 -0.09584,0 -0.14094,0.06201 -0.14094,0.180405 z"
       style="font-size:10.5833px;line-height:1.25;font-family:'nimbus mono ps';-inkscape-font-specification:'nimbus mono ps';letter-spacing:0px;word-spacing:0px;fill:#f19090;fill-opacity:1;stroke-width:0.140941"
       id="path42667" />
    <path
       d="m 15.292525,35.326115 v -0.0451 -0.03947 c 0,-0.721617 -0.563763,-1.257191 -1.319205,-1.257191 -0.744167,0 -1.319205,0.529937 -1.319205,1.212089 0,0.744168 0.614502,1.319205 1.398131,1.319205 0.546851,0 1.217729,-0.270606 1.217729,-0.484835 0,-0.07893 -0.06201,-0.140941 -0.140941,-0.140941 -0.03383,0 -0.05638,0.01127 -0.101477,0.0451 -0.225505,0.169129 -0.631415,0.293158 -0.969673,0.293158 -0.586314,0 -1.026049,-0.360809 -1.104975,-0.902022 z m -2.339616,-0.287518 c 0.09584,-0.462286 0.501749,-0.766718 1.020411,-0.766718 0.513024,0 0.924571,0.31007 1.014773,0.766718 z"
       style="font-size:10.5833px;line-height:1.25;font-family:'nimbus mono ps';-inkscape-font-specification:'nimbus mono ps';letter-spacing:0px;word-spacing:0px;fill:#f19090;fill-opacity:1;stroke-width:0.140941"
       id="path42669" />
    <path
       d="m 16.974988,19.911069 c 0,-0.344205 -0.119724,-0.501342 -0.389101,-0.501342 -0.16462,0 -0.24693,0.05986 -0.299308,0.202033 -0.284343,-0.134688 -0.650996,-0.202033 -1.062546,-0.202033 -1.144854,0 -1.945505,0.725823 -1.945505,1.76592 0,0.44148 0.157137,0.823099 0.463928,1.114924 0.374136,0.351688 0.845547,0.501343 1.578853,0.501343 0.553721,0 1.032614,-0.08231 1.339405,-0.231965 0.32924,-0.157137 0.501342,-0.351688 0.501342,-0.553721 0,-0.209515 -0.179585,-0.389101 -0.404066,-0.389101 -0.09728,0 -0.172103,0.02993 -0.24693,0.08979 -0.299308,0.24693 -0.538755,0.314274 -1.137372,0.314274 -0.860512,0 -1.287027,-0.284343 -1.287027,-0.845547 0,-0.6061 0.448963,-0.9952 1.144855,-0.9952 0.321757,0 0.583651,0.05986 0.77072,0.179585 0.08979,0.05238 0.134688,0.112241 0.157137,0.231964 0.03741,0.16462 0.05986,0.209515 0.119723,0.261895 0.06734,0.05986 0.187068,0.104758 0.291826,0.104758 0.127206,0 0.246929,-0.05986 0.329239,-0.157138 0.05986,-0.07483 0.07483,-0.149654 0.07483,-0.344204 z"
       style="font-weight:bold;font-size:7.3059px;line-height:1.25;font-family:'nimbus mono ps';-inkscape-font-specification:'nimbus mono ps Bold';letter-spacing:0px;word-spacing:0px;fill:#e96625;fill-opacity:1;stroke-width:0.187068"
       id="path51180" />
    <path
       d="m 20.003337,18.167596 h -1.361854 c -0.194551,0 -0.261896,0.01496 -0.336723,0.05238 -0.119723,0.07483 -0.19455,0.202033 -0.19455,0.336722 0,0.127206 0.05987,0.239447 0.172103,0.314274 0.07483,0.05986 0.164619,0.07483 0.35917,0.07483 h 0.55372 v 2.963154 h -0.88296 c -0.19455,0 -0.254412,0.0075 -0.329239,0.05238 -0.119724,0.07483 -0.194551,0.202033 -0.194551,0.329239 0,0.254413 0.179586,0.389101 0.52379,0.389101 h 2.574054 c 0.344204,0 0.52379,-0.134688 0.52379,-0.389101 0,-0.119723 -0.05987,-0.231964 -0.16462,-0.306791 -0.08232,-0.05986 -0.157137,-0.07483 -0.35917,-0.07483 h -0.88296 z"
       style="font-weight:bold;font-size:7.3059px;line-height:1.25;font-family:'nimbus mono ps';-inkscape-font-specification:'nimbus mono ps Bold';letter-spacing:0px;word-spacing:0px;fill:#e96625;fill-opacity:1;stroke-width:0.187068"
       id="path51182" />
    <path
       d="m 25.96491,21.452508 v -0.306791 c 0,-1.002684 -0.830582,-1.73599 -1.967953,-1.73599 -1.114925,0 -1.960471,0.740789 -1.960471,1.706059 0,0.980235 0.823098,1.676128 2.005367,1.676128 0.538755,0 1.309474,-0.127207 1.646197,-0.276861 0.187067,-0.07483 0.27686,-0.187068 0.27686,-0.344205 0,-0.216998 -0.16462,-0.389101 -0.381619,-0.389101 -0.08231,0 -0.164619,0.01496 -0.261894,0.03741 -0.673444,0.172102 -0.867995,0.202033 -1.2122,0.202033 -0.621065,0 -0.995201,-0.179586 -1.182268,-0.568686 z m -3.023016,-0.68841 c 0.119723,-0.344205 0.553721,-0.583651 1.062545,-0.583651 0.508825,0 0.935339,0.239446 1.062545,0.583651 z"
       style="font-weight:bold;font-size:7.3059px;line-height:1.25;font-family:'nimbus mono ps';-inkscape-font-specification:'nimbus mono ps Bold';letter-spacing:0px;word-spacing:0px;fill:#e9a17d;fill-opacity:1;stroke-width:0.187068"
       id="path51184" />
    <path
       d="m 29.180324,22.679672 h 0.905409 c 0.351687,0 0.523789,-0.127205 0.523789,-0.389101 0,-0.119723 -0.05986,-0.239446 -0.164619,-0.314273 -0.08232,-0.05238 -0.149655,-0.06734 -0.35917,-0.06734 h -0.08979 v -1.414233 c 0,-0.680927 -0.561203,-1.084993 -1.504025,-1.084993 -0.381619,0 -0.927856,0.08979 -1.29451,0.209516 -0.164619,0.05986 -0.246929,0.172103 -0.246929,0.336723 0,0.216998 0.172102,0.3891 0.389101,0.3891 0.07483,0 0.179585,-0.01496 0.314274,-0.04489 0.359171,-0.08232 0.613582,-0.119723 0.867995,-0.119723 0.456445,0 0.658478,0.09728 0.658478,0.314273 v 0.13469 c -0.261895,-0.0449 -0.508824,-0.06734 -0.755754,-0.06734 -0.665961,0 -1.182268,0.187068 -1.533955,0.553721 -0.187069,0.19455 -0.299309,0.456446 -0.299309,0.68841 0,0.546238 0.621065,0.987718 1.391784,0.987718 0.411549,0 0.845547,-0.08979 1.197234,-0.254413 z m 0.0075,-1.010165 c -0.404067,0.231964 -0.808133,0.351687 -1.2122,0.351687 -0.291825,0 -0.531272,-0.112241 -0.531272,-0.24693 0,-0.104757 0.08979,-0.216998 0.239447,-0.314274 0.202033,-0.127206 0.411548,-0.179584 0.710857,-0.179584 0.24693,0 0.471411,0.02245 0.793168,0.07483 z"
       style="font-weight:bold;font-size:7.3059px;line-height:1.25;font-family:'nimbus mono ps';-inkscape-font-specification:'nimbus mono ps Bold';letter-spacing:0px;word-spacing:0px;fill:#e9a17d;fill-opacity:1;stroke-width:0.187068"
       id="path51186" />
    <path
       d="m 32.971908,19.492037 h -1.040095 c -0.134689,0 -0.276862,0.02245 -0.32924,0.05986 -0.119723,0.06734 -0.19455,0.19455 -0.19455,0.32924 0,0.254411 0.179584,0.3891 0.52379,0.3891 h 0.231964 v 1.638714 H 31.75971 c -0.19455,0 -0.254413,0.0075 -0.32924,0.05238 -0.119723,0.06734 -0.19455,0.202032 -0.19455,0.329238 0,0.254413 0.179585,0.389102 0.52379,0.389102 h 2.222364 c 0.351688,0 0.531273,-0.127206 0.531273,-0.389102 0,-0.119723 -0.05987,-0.231964 -0.16462,-0.306791 -0.0823,-0.05987 -0.157136,-0.07483 -0.366653,-0.07483 h -1.010166 v -1.010166 c 0.680927,-0.538755 0.980236,-0.71834 1.204717,-0.71834 0.09728,0 0.16462,0.02993 0.269378,0.119723 0.119724,0.104758 0.202034,0.142172 0.314274,0.142172 0.216998,0 0.404067,-0.179586 0.404067,-0.396585 0,-0.134688 -0.05987,-0.231964 -0.216999,-0.35917 -0.239447,-0.187067 -0.486377,-0.27686 -0.755754,-0.27686 -0.374136,0 -0.636031,0.112241 -1.219683,0.516307 z"
       style="font-weight:bold;font-size:7.3059px;line-height:1.25;font-family:'nimbus mono ps';-inkscape-font-specification:'nimbus mono ps Bold';letter-spacing:0px;word-spacing:0px;fill:#e9a17d;fill-opacity:1;stroke-width:0.187068"
       id="path51188" />
    <path
       d="m 38.005628,19.49952 h -1.361853 c -0.202034,0 -0.261896,0.0075 -0.336723,0.05238 -0.119723,0.07483 -0.19455,0.19455 -0.19455,0.32924 0,0.261894 0.179585,0.3891 0.531273,0.3891 h 0.55372 v 1.638714 h -0.88296 c -0.19455,0 -0.254413,0.0075 -0.32924,0.05238 -0.119723,0.07483 -0.19455,0.202033 -0.19455,0.329239 0,0.254413 0.179586,0.389101 0.52379,0.389101 h 2.574054 c 0.344204,0 0.523789,-0.134688 0.523789,-0.389101 0,-0.119723 -0.05986,-0.231964 -0.164619,-0.306791 -0.08232,-0.05986 -0.157137,-0.07483 -0.35917,-0.07483 H 38.005628 Z M 37.90087,18.175079 h -0.942822 v 0.808134 h 0.942822 z"
       style="font-weight:bold;font-size:7.3059px;line-height:1.25;font-family:'nimbus mono ps';-inkscape-font-specification:'nimbus mono ps Bold';letter-spacing:0px;word-spacing:0px;fill:#e96625;fill-opacity:1;stroke-width:0.187068"
       id="path51190" />
    <path
       d="m 43.73524,19.911069 c 0,-0.344205 -0.119723,-0.501342 -0.389101,-0.501342 -0.164619,0 -0.246929,0.05986 -0.299308,0.202033 -0.284343,-0.134688 -0.650996,-0.202033 -1.062545,-0.202033 -1.144855,0 -1.945506,0.725823 -1.945506,1.76592 0,0.44148 0.157137,0.823099 0.463928,1.114924 0.374136,0.351688 0.845547,0.501343 1.578853,0.501343 0.553721,0 1.032614,-0.08231 1.339405,-0.231965 0.32924,-0.157137 0.501343,-0.351688 0.501343,-0.553721 0,-0.209515 -0.179586,-0.389101 -0.404067,-0.389101 -0.09728,0 -0.172103,0.02993 -0.24693,0.08979 -0.299308,0.24693 -0.538754,0.314274 -1.137371,0.314274 -0.860513,0 -1.287027,-0.284343 -1.287027,-0.845547 0,-0.6061 0.448963,-0.9952 1.144854,-0.9952 0.321757,0 0.583653,0.05986 0.77072,0.179585 0.08979,0.05238 0.134688,0.112241 0.157137,0.231964 0.03741,0.16462 0.05986,0.209515 0.119723,0.261895 0.06734,0.05986 0.187068,0.104758 0.291827,0.104758 0.127205,0 0.246928,-0.05986 0.329238,-0.157138 0.05987,-0.07483 0.07483,-0.149654 0.07483,-0.344204 z"
       style="font-weight:bold;font-size:7.3059px;line-height:1.25;font-family:'nimbus mono ps';-inkscape-font-specification:'nimbus mono ps Bold';letter-spacing:0px;word-spacing:0px;fill:#e9a17d;fill-opacity:1;stroke-width:0.187068"
       id="path51192" />
    <path
       d="m 48.477132,21.452508 v -0.306791 c 0,-1.002684 -0.830581,-1.73599 -1.967954,-1.73599 -1.114924,0 -1.960471,0.740789 -1.960471,1.706059 0,0.980235 0.823099,1.676128 2.005368,1.676128 0.538755,0 1.309474,-0.127207 1.646197,-0.276861 0.187067,-0.07483 0.27686,-0.187068 0.27686,-0.344205 0,-0.216998 -0.16462,-0.389101 -0.381619,-0.389101 -0.08231,0 -0.164619,0.01496 -0.261895,0.03741 -0.673444,0.172102 -0.867994,0.202033 -1.212199,0.202033 -0.621065,0 -0.995201,-0.179586 -1.182269,-0.568686 z m -3.023016,-0.68841 c 0.119724,-0.344205 0.553721,-0.583651 1.062545,-0.583651 0.508824,0 0.93534,0.239446 1.062545,0.583651 z"
       style="font-weight:bold;font-size:7.3059px;line-height:1.25;font-family:'nimbus mono ps';-inkscape-font-specification:'nimbus mono ps Bold';letter-spacing:0px;word-spacing:0px;fill:#e9a17d;fill-opacity:1;stroke-width:0.187068"
       id="path51194" />
  </g>
</svg>
