<?xml version="1.0" encoding="UTF-8" standalone="no"?>
<!-- Created with Inkscape (http://www.inkscape.org/) -->

<svg
   width="569.70996"
   height="130.51366"
   viewBox="0 0 150.73576 34.531737"
   version="1.1"
   id="svg1"
   inkscape:version="1.3 (0e150ed6c4, 2023-07-21)"
   sodipodi:docname="logo.svg"
   xmlns:inkscape="http://www.inkscape.org/namespaces/inkscape"
   xmlns:sodipodi="http://sodipodi.sourceforge.net/DTD/sodipodi-0.dtd"
   xmlns="http://www.w3.org/2000/svg"
   xmlns:svg="http://www.w3.org/2000/svg">
  <sodipodi:namedview
     id="namedview1"
     pagecolor="#ffffff"
     bordercolor="#666666"
     borderopacity="1.0"
     inkscape:showpageshadow="2"
     inkscape:pageopacity="0.0"
     inkscape:pagecheckerboard="true"
     inkscape:deskcolor="#d1d1d1"
     inkscape:document-units="px"
     inkscape:zoom="0.74029882"
     inkscape:cx="285.02004"
     inkscape:cy="-42.550385"
     inkscape:window-width="1920"
     inkscape:window-height="1011"
     inkscape:window-x="0"
     inkscape:window-y="0"
     inkscape:window-maximized="1"
     inkscape:current-layer="layer1" />
  <defs
     id="defs1" />
  <g
     inkscape:label="Layer 1"
     inkscape:groupmode="layer"
     id="layer1"
     transform="translate(-29.633333,-131.23333)">
    <path
       id="rect1"
       style="fill:#4d8b31;fill-opacity:1;stroke-width:0.264999;paint-order:markers stroke fill"
       d="m 32.279166,131.23333 c -1.465789,0 -2.645833,1.18005 -2.645833,2.64584 v 29.24007 c 0,1.46579 1.180044,2.64583 2.645833,2.64583 h 29.240075 c 1.465789,0 2.645833,-1.18004 2.645833,-2.64583 v -29.24007 c 0,-1.46579 -1.180044,-2.64584 -2.645833,-2.64584 z m 3.827156,8.69456 a 1.984375,1.984375 0 0 1 1.706356,0.57516 l 8.42946,8.62841 a 1.9845734,1.9845734 0 0 1 0,2.77348 l -8.42946,8.62738 a 1.984375,1.984375 0 0 1 -2.80448,0.0331 1.984375,1.984375 0 0 1 -0.03359,-2.80655 l 7.074503,-7.24038 -7.074503,-7.24245 a 1.984375,1.984375 0 0 1 0.03359,-2.80448 1.984375,1.984375 0 0 1 1.098124,-0.54364 z m 12.895854,17.3328 h 8.525578 a 1.984375,1.984375 0 0 1 1.984375,1.98437 1.984375,1.984375 0 0 1 -1.984375,1.98438 h -8.525578 a 1.984375,1.984375 0 0 1 -1.984375,-1.98438 1.984375,1.984375 0 0 1 1.984375,-1.98437 z" />
    <text
       xml:space="preserve"
       style="font-size:23.6657px;line-height:1.25;font-family:sans-serif;letter-spacing:0px;word-spacing:0px;fill:#ffffff;fill-opacity:1;stroke-width:0.264583"
       x="68.32679"
       y="160.32668"
       id="text2"><tspan
         sodipodi:role="line"
         id="tspan2"
         style="font-style:normal;font-variant:normal;font-weight:normal;font-stretch:normal;font-family:'Roboto Mono';-inkscape-font-specification:'Roboto Mono';fill:#ffffff;fill-opacity:1;stroke-width:0.264583"
         x="68.32679"
         y="160.32668">clearice</tspan></text>
  </g>
</svg>
