<?xml version="1.0" encoding="UTF-8" standalone="no"?>
<!-- Created with Inkscape (http://www.inkscape.org/) -->

<svg
   width="57.209843mm"
   height="21.262535mm"
   viewBox="0 0 57.209841 21.262535"
   version="1.1"
   id="svg5"
   inkscape:version="1.1 (c68e22c387, 2021-05-23)"
   sodipodi:docname="akw1.svg"
   xmlns:inkscape="http://www.inkscape.org/namespaces/inkscape"
   xmlns:sodipodi="http://sodipodi.sourceforge.net/DTD/sodipodi-0.dtd"
   xmlns="http://www.w3.org/2000/svg"
   xmlns:svg="http://www.w3.org/2000/svg">
  <sodipodi:namedview
     id="namedview7"
     pagecolor="#ffffff"
     bordercolor="#666666"
     borderopacity="1.0"
     inkscape:pageshadow="2"
     inkscape:pageopacity="0.0"
     inkscape:pagecheckerboard="0"
     inkscape:document-units="mm"
     showgrid="false"
     fit-margin-top="0"
     fit-margin-left="0"
     fit-margin-right="0"
     fit-margin-bottom="0"
     inkscape:zoom="1.1082211"
     inkscape:cx="172.34828"
     inkscape:cy="120.01215"
     inkscape:window-width="1920"
     inkscape:window-height="1011"
     inkscape:window-x="0"
     inkscape:window-y="0"
     inkscape:window-maximized="1"
     inkscape:current-layer="layer1" />
  <defs
     id="defs2">
    <clipPath
       clipPathUnits="userSpaceOnUse"
       id="clipPath41">
      <path
         d="m 0,48 h 816 v 960.16 H 0 Z"
         clip-rule="evenodd"
         id="path39" />
    </clipPath>
    <clipPath
       clipPathUnits="userSpaceOnUse"
       id="clipPath129">
      <path
         d="M 82.840103,48 H 768.19598 V 79.411499 H 82.840103 Z"
         clip-rule="evenodd"
         id="path127" />
    </clipPath>
    <clipPath
       clipPathUnits="userSpaceOnUse"
       id="clipPath137">
      <path
         d="M 82.840103,83.946297 H 768.19598 V 99.806 H 82.840103 Z"
         clip-rule="evenodd"
         id="path135" />
    </clipPath>
    <clipPath
       clipPathUnits="userSpaceOnUse"
       id="clipPath151">
      <path
         d="M 260.01901,83.946297 H 816 V 99.806 H 260.01901 Z"
         clip-rule="evenodd"
         id="path149" />
    </clipPath>
    <clipPath
       clipPathUnits="userSpaceOnUse"
       id="clipPath165">
      <path
         d="m 0,1032 h 816 v 24 H 0 Z"
         clip-rule="evenodd"
         id="path163" />
    </clipPath>
    <clipPath
       clipPathUnits="userSpaceOnUse"
       id="clipPath173">
      <path
         d="M 82.840103,1040.89 H 816 v 14.32 H 82.840103 Z"
         clip-rule="evenodd"
         id="path171" />
    </clipPath>
    <clipPath
       clipPathUnits="userSpaceOnUse"
       id="clipPath181">
      <path
         d="m 0,1040.89 h 794.83398 v 14.32 H 0 Z"
         clip-rule="evenodd"
         id="path179" />
    </clipPath>
    <clipPath
       clipPathUnits="userSpaceOnUse"
       id="clipPath189">
      <path
         d="m 0,1040.89 h 702.47302 v 14.32 H 0 Z"
         clip-rule="evenodd"
         id="path187" />
    </clipPath>
  </defs>
  <g
     inkscape:label="Layer 1"
     inkscape:groupmode="layer"
     id="layer1"
     transform="translate(114.99719,-74.508917)">
    <g
       id="g3974"
       transform="matrix(0.37688771,0.03520297,-0.03520297,0.37688771,-67.042741,46.976019)"
       style="fill:#003799;fill-opacity:1">
      <g
         id="g83"
         transform="matrix(0.26458333,0,0,0.26458333,-182.91624,-57.57138)"
         style="fill:#003799;fill-opacity:1">
        <path
           id="path85"
           style="fill:#003799;fill-opacity:1;fill-rule:nonzero;stroke:none"
           d="m 357.84598,524.86331 c -9.21959,0.57273 -17.52187,5.53222 -25.4983,9.86344 -19.61307,11.70904 -35.6095,28.61329 -49.60886,46.38865 -14.15541,18.05216 -24.07088,39.34044 -28.28165,61.93321 -2.69189,13.67218 -3.88522,28.68432 2.48374,41.53303 3.57658,7.52711 10.69565,13.68828 19.29794,13.83055 11.29493,0.50444 21.32189,-6.383 29.69447,-13.31473 9.03819,-7.58171 16.20539,-16.87427 23.32873,-26.23622 -0.14493,6.80161 1.70543,15.48753 8.97587,17.66528 7.80328,1.94049 14.67721,-3.66504 20.90683,-7.71993 9.02236,-6.30363 17.13541,-13.68709 25.14642,-21.21701 4.08798,-6.7496 -5.49119,-7.07601 -7.97322,-2.27406 -9.73167,8.6493 -20.15614,17.23404 -32.65246,21.45149 -2.5458,1.3182 -3.71546,-1.00348 -3.85924,-3.19723 -1.00288,-8.64003 1.37454,-17.35958 3.92795,-25.52123 10.67132,-17.07133 20.99874,-34.45167 31.04724,-51.88289 3.86978,-7.44974 8.50842,-14.7859 10.42209,-22.9882 1.2587,-4.36176 -2.08998,-9.88754 -7.07259,-8.92591 -6.66607,1.57016 -9.45828,8.69151 -13.6135,13.48827 -10.98021,15.09388 -17.6504,32.68525 -24.57527,49.94509 -2.52623,6.04238 -4.26007,12.42622 -6.7634,18.47421 -8.57364,12.82459 -17.49326,25.56112 -28.1915,36.7195 -6.92703,6.77326 -14.79914,13.54797 -24.45939,15.78111 -5.22106,1.2638 -10.91543,-1.05341 -13.51234,-5.82599 -6.59313,-10.71077 -5.20248,-24.05702 -3.16281,-35.89906 3.94837,-22.21333 13.39497,-43.31498 27.07935,-61.23572 14.998,-19.54934 32.66062,-38.29717 55.53408,-48.46583 4.74144,-1.952 10.41186,-4.9909 15.43785,-2.34245 3.4593,4.04083 2.70963,9.99769 3.64922,14.85798 -0.7634,4.69395 6.36432,5.94037 6.21034,0.61663 1.36958,-6.64398 2.59253,-14.22717 -1.85892,-20.07042 -2.80666,-3.81268 -7.49115,-5.4784 -12.05867,-5.43156 z" />
      </g>
      <path
         id="path89"
         style="fill:#003799;fill-opacity:1;fill-rule:nonzero;stroke:none;stroke-width:0.264583"
         d="m -73.719734,83.231917 c -1.6891,0.329306 -0.86713,2.608182 -1.155018,3.809191 -0.341979,6.154851 -1.175408,12.274092 -2.266661,18.338292 -1.929207,1.41649 -3.188806,4.11387 -2.127499,6.45543 1.391476,1.60481 0.01212,3.6386 -0.06334,5.48404 -0.390117,1.77554 -0.500356,3.60481 -0.81262,5.28894 0.137385,0.91228 -1.199779,2.5293 0.162883,2.79749 0.64362,-0.98958 1.036394,-2.08373 1.524725,-3.19109 0.853099,-2.38079 1.270217,-4.9092 1.796441,-7.39137 2.999478,1.84022 6.717475,1.83668 10.131729,1.72641 1.126033,-0.32113 3.914945,-0.14303 3.658772,-1.74545 -1.449302,-0.27793 -3.069465,-0.31177 -4.621561,-0.54386 -2.946244,-0.15429 -6.279044,-0.0337 -8.64076,-2.09181 0.332475,-1.82504 0.727038,-3.64188 1.023194,-5.46891 2.830198,-2.12969 6.065607,-3.83408 8.625811,-6.24048 1.096039,-0.15391 2.441874,-1.622056 0.753446,-2.020035 -0.7805,0.03466 -1.557351,0.0909 -2.261375,0.578777 -2.116823,1.561288 -4.386723,3.003028 -6.575349,4.462778 0.874374,-5.231072 1.561931,-10.491718 1.848467,-15.789734 -0.144378,-1.310847 0.348962,-2.742972 -0.02792,-3.96875 -0.246514,-0.354443 -0.577667,-0.480753 -0.973359,-0.489859 z" />
      <path
         id="path97"
         style="fill:#003799;fill-opacity:1;fill-rule:nonzero;stroke:none;stroke-width:0.264583"
         d="m -49.355846,96.623347 c -0.8265,0.292824 -0.155575,1.319217 -0.35924,1.956811 -0.04038,1.13333 -0.462188,2.224092 -0.718204,3.328052 -0.800055,2.74109 -1.221573,5.65241 -2.666915,8.15849 -0.273259,0.37479 -0.88247,1.65685 -0.973317,0.64118 -0.328616,-1.61989 -0.342107,-3.2898 -0.520886,-4.88647 -0.01135,-0.66535 -0.317365,-1.45254 -1.050022,-1.62654 -0.84155,-0.21103 -1.673567,0.45732 -1.767282,1.29528 -0.633122,2.17801 -1.276437,4.38156 -2.462845,6.33597 -0.134675,-0.26731 -0.05598,-1.32382 -0.06925,-1.90389 0.0067,-2.30274 0.136015,-4.59699 0.01897,-6.85519 0.09818,-0.723 -0.436758,-1.5834 -1.252064,-1.57203 -0.668885,-0.0196 -1.376666,0.53751 -1.389943,1.27507 0.220895,3.40616 -3.89e-4,6.82772 0.201816,10.23521 0.147278,0.96191 -0.03624,2.18181 0.77135,2.88527 0.734082,0.68511 1.908107,0.33855 2.466549,-0.39402 0.952694,-1.24045 1.732026,-2.62301 2.416279,-4.02594 0.3054,-0.71412 0.373909,1.17103 0.687652,1.44807 0.322932,0.8833 1.276159,1.58173 2.236864,1.28973 0.786723,-0.22974 1.406726,-0.85091 1.956017,-1.43648 1.475819,-1.60418 2.241013,-3.68409 2.796569,-5.72802 0.369488,-1.42287 0.692859,-2.91176 0.740619,-4.41561 0.04673,-1.39762 -0.02475,-2.83937 -0.19793,-4.233828 -0.144449,-0.626704 -0.11658,-1.553559 -0.864787,-1.771115 z" />
      <g
         id="g99"
         transform="matrix(0.26458333,0,0,0.26458333,-182.91624,-57.57138)"
         style="fill:#003799;fill-opacity:1">
        <path
           id="path101"
           style="fill:#003799;fill-opacity:1;fill-rule:nonzero;stroke:none"
           d="m 548.35965,585.44534 c -4.90768,0.20542 -9.51829,2.37364 -13.2443,5.49686 -3.86639,2.99611 -7.32774,6.53426 -10.568,10.1923 -2.17667,2.53508 -4.00306,5.3573 -5.8013,8.16088 -2.49548,4.35706 -4.57606,9.10288 -5.05162,14.13526 -0.28218,4.01485 1.24566,8.59874 5.07822,10.37911 3.58201,1.65117 7.81936,0.55184 10.87968,-1.69409 3.21546,-2.23774 5.87352,-5.08766 8.83922,-7.70836 1.01512,-1.02893 2.07112,-2.14023 3.10147,-3.20131 -0.38793,3.38457 -0.59232,6.81001 -0.28884,10.2178 0.0675,2.61706 0.73784,5.22744 1.28151,7.75099 1.46267,4.22297 3.26168,8.27824 6.0572,11.77183 1.53642,2.83056 6.04569,0.0439 4.13331,-2.58829 -1.82929,-2.75549 -2.62363,-6.0359 -2.68465,-9.31442 -0.69158,-10.60273 1.33621,-21.15767 3.90671,-31.39804 0.99516,-4.14523 2.41895,-8.22858 3.02615,-12.42108 1.53352,-0.55509 4.23101,-2.80715 2.39291,-5.04123 -2.2468,-3.73694 -6.93903,-4.91597 -11.05767,-4.73821 z m -0.78906,8.97851 c -1.9068,4.73588 -4.4945,9.16178 -7.04231,13.57164 -3.02285,5.08217 -7.10838,9.42271 -11.47473,13.37254 -1.95744,1.6662 -3.75879,3.79804 -6.29934,4.53236 -0.58158,-0.90711 -0.30961,-2.39725 -0.0492,-3.48802 1.13814,-4.79496 3.7009,-9.08606 6.59643,-13.01825 2.89986,-3.99404 6.5542,-7.38622 10.24307,-10.63852 2.39508,-1.87817 4.90337,-3.92163 8.02604,-4.33175 z" />
      </g>
      <g
         id="g103"
         transform="matrix(0.26458333,0,0,0.26458333,-182.91624,-57.57138)"
         style="fill:#003799;fill-opacity:1">
        <path
           id="path105"
           style="fill:#003799;fill-opacity:1;fill-rule:nonzero;stroke:none"
           d="m 598.91239,580.1719 c -5.63577,-0.11829 -11.0875,2.0551 -15.67028,5.23736 -4.19663,2.87465 -8.05832,6.24914 -11.72691,9.77184 -3.29127,3.13268 -6.13524,6.69941 -8.63263,10.49643 -1.95909,2.79764 -3.62513,5.82274 -5.26329,8.80885 -2.36654,4.66951 -4.34797,9.61466 -5.25668,14.77178 -0.45394,2.69041 0.48279,5.74528 2.9736,7.11649 3.46239,1.72895 7.65321,0.5922 10.74778,-1.43113 4.18801,-2.90023 7.40608,-6.93586 11.02162,-10.50376 2.54236,-2.59496 4.98249,-5.27127 7.2219,-8.13873 -0.14669,2.73844 0.038,5.51571 0.55038,8.20453 0.42463,2.34206 1.12397,4.58627 2.14063,6.7395 0.77626,1.86943 2.02954,3.59442 3.54126,4.93116 1.49957,1.16682 3.14419,2.02874 5.02674,2.33238 3.17136,0.6615 6.41288,-0.14407 9.56882,-0.85458 2.86433,-0.92914 2.87947,-5.3863 0.0957,-6.39606 -2.27927,-0.70947 -4.66817,0.59435 -7.0094,0.13103 -2.08513,-1.01511 -2.52376,-3.57611 -3.3382,-5.53571 -1.60223,-5.33279 -1.25036,-11.05168 -0.18442,-16.4578 0.75994,-4.53251 2.495,-8.8253 3.67932,-13.23541 0.78712,-2.8866 -1.43696,-6.25448 -4.58942,-6.13281 -0.52559,-0.0326 1.6289,-0.64679 2.28575,-0.77796 2.01673,-0.4526 4.12799,-0.84203 6.18886,-0.64782 1.47372,0.82896 3.46209,1.53722 4.82599,0.0466 1.70311,-1.56735 0.57777,-3.8054 -0.49391,-5.28294 -1.46274,-2.33367 -4.29337,-3.03442 -6.8999,-3.13261 -0.26728,-0.0271 -0.53375,-0.0658 -0.8033,-0.0606 z m -8.61915,11.3125 c -2.88922,4.00808 -5.24316,8.42367 -8.15584,12.43735 -2.87551,4.21509 -5.78603,8.42317 -9.28683,12.15305 -3.56729,3.65626 -6.91942,7.53833 -10.7586,10.91735 1.71393,-5.54513 4.52135,-10.67404 7.61886,-15.55309 2.35602,-3.57878 4.91975,-7.04166 8.05589,-9.98161 3.29463,-3.15053 6.77842,-6.13704 10.50522,-8.76506 0.65147,-0.44199 1.31668,-0.85531 2.0213,-1.20799 z" />
      </g>
      <g
         id="g107"
         transform="matrix(0.26458333,0,0,0.26458333,-182.91624,-57.57138)"
         style="fill:#003799;fill-opacity:1">
        <path
           id="path109"
           style="fill:#003799;fill-opacity:1;fill-rule:nonzero;stroke:none"
           d="m 651.16239,527.3887 c -3.73653,0.22815 -6.72426,2.97277 -7.99512,6.3709 -4.53777,8.8845 -7.00814,18.49307 -9.53979,28.07976 -5.1363,19.91381 -7.04997,40.34045 -9.88548,60.71343 -0.59263,1.1741 -2.43893,0.90983 -3.53715,1.47676 -3.02492,0.1636 -6.00657,3.29105 -3.93618,6.27441 0.93433,2.58248 5.54762,0.15127 3.71765,3.43695 -0.69671,3.43222 -1.32781,7.05002 -0.55553,10.43849 1.12953,4.21813 7.55081,5.501 9.80327,1.50032 1.85486,-3.62361 1.76077,-7.86011 2.56337,-11.84717 0.52976,-1.29503 -0.11413,-3.72892 1.15534,-4.30617 8.00123,-1.41752 15.75474,-4.25697 22.8653,-8.12772 4.94107,-2.86011 9.69528,-6.49748 12.6683,-11.41171 4.82325,-8.53673 -1.30332,-21.05029 -11.14346,-22.36253 -5.59183,-0.64752 -11.00358,2.10917 -15.20458,5.60587 -2.00049,1.68893 -3.73774,3.59925 -5.31134,5.67893 2.54471,-17.92976 6.16819,-35.72856 11.4462,-53.0585 1.31731,-3.91587 2.11945,-8.05038 3.90758,-11.78147 2.00856,-1.59542 3.24021,-5.12279 0.19686,-6.43595 0.31246,0.11194 -1.52152,-0.53082 -1.21524,-0.2446 z m 4.22851,70.4414 c 3.28457,0.19586 5.488,4.10297 4.82028,7.12309 -2.45821,3.97394 -6.72015,6.44686 -10.74897,8.60612 -4.03106,1.91965 -8.19178,3.54278 -12.39553,5.04036 3.39293,-6.38379 6.52589,-13.28613 12.22266,-17.98046 1.81274,-1.35207 3.85937,-2.40187 6.10156,-2.78911 z" />
      </g>
      <g
         id="g111"
         transform="matrix(0.26458333,0,0,0.26458333,-182.91624,-57.57138)"
         style="fill:#003799;fill-opacity:1">
        <path
           id="path113"
           style="fill:#003799;fill-opacity:1;fill-rule:nonzero;stroke:none"
           d="m 710.41043,582.87503 c -6.66106,-0.24546 -12.95509,2.79924 -18.1853,6.6904 -6.52105,4.4575 -12.14566,10.2111 -16.23094,16.98613 -2.27126,3.24194 -3.90334,6.87396 -5.65449,10.40401 -2.13712,4.97972 -3.70447,10.40689 -3.34403,15.85969 0.35963,2.222 1.50797,4.37757 3.58774,5.42737 3.32747,1.89348 7.32269,0.56749 10.52344,-0.97848 4.77475,-2.58059 8.31237,-6.82837 12.11418,-10.59946 2.30172,-2.4754 4.75621,-4.80215 6.85481,-7.45164 -1.12929,4.96068 -1.87095,10.03141 -1.79458,15.13146 0.10065,3.63979 0.5278,7.20859 1.32954,10.73781 0.51514,3.36941 5.57536,4.04183 7.01307,1.01631 1.05839,-2.28436 -0.33175,-4.75601 0.0263,-7.16537 0.29302,-9.86477 3.48929,-19.32913 6.72226,-28.56002 1.53306,-4.62101 3.43763,-9.09056 4.99295,-13.68568 1.23007,-1.83692 1.37322,-4.22486 1.44167,-6.31845 -0.0678,-2.70247 -1.53482,-5.46735 -4.15631,-6.47189 -1.59862,-0.80723 -3.49685,-0.92142 -5.24034,-1.02219 z m -3.17578,9.92578 c -4.7905,7.42772 -9.86335,14.71362 -15.6422,21.42025 -3.98593,4.35319 -8.03753,8.68024 -12.44462,12.61257 -0.5068,0.28529 -2.28143,2.10774 -1.78053,0.70818 0.97325,-4.89371 3.41585,-9.3141 5.72495,-13.67732 2.14535,-3.46551 4.31148,-6.94373 7.15779,-9.89035 3.39332,-3.57823 7.34447,-6.63632 11.59575,-9.12589 1.67886,-0.93728 3.49075,-1.70547 5.38886,-2.04744 z" />
      </g>
      <g
         id="g115"
         transform="matrix(0.26458333,0,0,0.26458333,-182.91624,-57.57138)"
         style="fill:#003799;fill-opacity:1">
        <path
           id="path117"
           style="fill:#003799;fill-opacity:1;fill-rule:nonzero;stroke:none"
           d="m 804.90262,493.20901 c -5.20632,0.5901 -8.38509,5.51028 -10.77589,9.6348 -5.02469,8.56313 -8.71146,17.84022 -13.04776,26.81258 -6.94186,15.6594 -13.02968,31.75125 -18.52563,47.95773 -3.97677,11.03865 -6.89474,22.35159 -9.49231,33.81132 -0.77429,3.41453 -1.72317,6.86396 -2.4681,10.2391 1.40664,3.54772 3.73827,-0.68723 4.08611,-2.64454 5.13007,-12.73957 11.73168,-24.79715 16.47225,-37.68175 7.57239,-19.11292 14.57314,-38.5876 23.39593,-57.17167 3.55567,-7.64854 6.58372,-15.72694 11.44297,-22.69416 1.76159,-1.31949 5.42205,-1.73062 4.00171,-5.05921 -1.00248,-1.86731 -2.9871,-3.13434 -5.08928,-3.2042 z" />
      </g>
      <g
         id="g119"
         transform="matrix(0.26458333,0,0,0.26458333,-182.91624,-57.57138)"
         style="fill:#003799;fill-opacity:1">
        <path
           id="path121"
           style="fill:#003799;fill-opacity:1;fill-rule:nonzero;stroke:none"
           d="m 717.94949,691.61721 c -1.06933,0.0721 -2.17191,0.26715 -3.10447,0.82076 -0.99402,0.58653 -1.64735,1.57382 -2.1288,2.59543 -0.44848,0.82289 -0.64658,1.75228 -0.66704,2.68357 -0.11339,1.30171 -0.41394,2.68083 0.14954,3.92514 0.70745,1.75265 2.53771,2.98367 4.43654,2.90853 2.09589,-0.0363 4.07461,-1.63348 4.44835,-3.71422 0.11519,-0.69748 0.26328,-1.38773 0.48818,-2.05825 0.0627,-0.53101 0.46239,-0.89922 0.66958,-1.36933 0.63755,-1.38283 0.28794,-3.14651 -0.8608,-4.15692 -0.75153,-0.8188 -1.73072,-1.48151 -2.8603,-1.59676 -0.18918,-0.0249 -0.37997,-0.0375 -0.57078,-0.038 z" />
      </g>
    </g>
    <g
       id="g123"
       transform="matrix(0.26458333,0,0,0.26458333,-182.91624,-57.57138)">
      <g
         id="g125"
         clip-path="url(#clipPath129)" />
    </g>
    <g
       id="g131"
       transform="matrix(0.26458333,0,0,0.26458333,-182.91624,-57.57138)">
      <g
         id="g133"
         clip-path="url(#clipPath137)">
        <g
           id="g139"
           transform="matrix(0.962362,0,0,0.962362,92.386803,83.946297)">
          <text
             transform="translate(0,12.6914)"
             style="font-variant:normal;font-weight:normal;font-size:13.3333px;font-family:F1;-inkscape-font-specification:F1;writing-mode:lr-tb;fill:#767676;fill-opacity:1;fill-rule:nonzero;stroke:none"
             id="text143"><tspan
               x="0 11.861917 18.496021 25.501257 32.506493 39.140594 44.355381 51.360619 57.747269 63.782425 67.109245 70.12352 77.838348 84.84359 91.119583 98.124817 103.33961 107.80574 110.82001 117.5778 124.33558 127.6624 130.67667 137.43445 144.19225 150.95003"
               y="0"
               sodipodi:role="line"
               id="tspan141" /></text>
        </g>
      </g>
    </g>
    <g
       id="g145"
       transform="matrix(0.26458333,0,0,0.26458333,-182.91624,-57.57138)">
      <g
         id="g147"
         clip-path="url(#clipPath151)">
        <g
           id="g153"
           transform="matrix(0.962362,0,0,0.962362,269.565,83.946297)">
          <text
             transform="translate(0,12.6914)"
             style="font-variant:normal;font-weight:normal;font-size:13.3333px;font-family:F1;-inkscape-font-specification:F1;writing-mode:lr-tb;fill:#767676;fill-opacity:1;fill-rule:nonzero;stroke:none"
             id="text157"><tspan
               x="0 6.7577829 10.325441 17.083223 23.841007 26.85528 33.743248"
               y="0"
               sodipodi:role="line"
               id="tspan155" /></text>
        </g>
      </g>
    </g>
    <g
       id="g159"
       transform="matrix(0.26458333,0,0,0.26458333,-200.58344,-64.256268)">
      <g
         id="g161"
         clip-path="url(#clipPath165)">
        <g
           id="g167">
          <g
             id="g169"
             clip-path="url(#clipPath173)" />
        </g>
        <g
           id="g175">
          <g
             id="g177"
             clip-path="url(#clipPath181)" />
        </g>
        <g
           id="g183">
          <g
             id="g185"
             clip-path="url(#clipPath189)" />
        </g>
      </g>
    </g>
  </g>
</svg>
