<?xml version="1.0" encoding="UTF-8" standalone="no"?>
<!-- Created with Inkscape (http://www.inkscape.org/) -->

<svg
   width="800"
   height="600"
   viewBox="0 0 211.66666 158.75"
   version="1.1"
   id="svg5"
   inkscape:version="1.1 (c68e22c387, 2021-05-23)"
   sodipodi:docname="clearice.svg"
   xmlns:inkscape="http://www.inkscape.org/namespaces/inkscape"
   xmlns:sodipodi="http://sodipodi.sourceforge.net/DTD/sodipodi-0.dtd"
   xmlns:xlink="http://www.w3.org/1999/xlink"
   xmlns="http://www.w3.org/2000/svg"
   xmlns:svg="http://www.w3.org/2000/svg">
  <sodipodi:namedview
     id="namedview7"
     pagecolor="#ffffff"
     bordercolor="#666666"
     borderopacity="1.0"
     inkscape:pageshadow="2"
     inkscape:pageopacity="0.0"
     inkscape:pagecheckerboard="0"
     inkscape:document-units="px"
     showgrid="false"
     units="px"
     width="800px"
     inkscape:zoom="0.80087682"
     inkscape:cx="397.06481"
     inkscape:cy="262.21261"
     inkscape:window-width="1920"
     inkscape:window-height="1043"
     inkscape:window-x="0"
     inkscape:window-y="0"
     inkscape:window-maximized="1"
     inkscape:current-layer="layer1" />
  <defs
     id="defs2">
    <linearGradient
       inkscape:collect="always"
       id="linearGradient1439">
      <stop
         style="stop-color:#e9a17d;stop-opacity:0.3991369"
         offset="0"
         id="stop1435" />
      <stop
         style="stop-color:#e9a17d;stop-opacity:0.25479326"
         offset="1"
         id="stop1437" />
    </linearGradient>
    <linearGradient
       inkscape:collect="always"
       xlink:href="#linearGradient1439"
       id="linearGradient1857"
       x1="117.92039"
       y1="160.0351"
       x2="117.92039"
       y2="0.53103828"
       gradientUnits="userSpaceOnUse" />
  </defs>
  <g
     inkscape:label="Layer 1"
     inkscape:groupmode="layer"
     id="layer1">
    <rect
       style="fill:url(#linearGradient1857);stroke-width:0.3;stroke-linejoin:round;stop-color:#000000;fill-opacity:1;opacity:0.43133781"
       id="rect1433"
       width="211.34329"
       height="160.16737"
       x="0.78462178"
       y="0.33165756"
       rx="1.0000006"
       ry="1.0000006" />
    <g
       inkscape:label="Layer 1"
       id="layer1-5"
       transform="matrix(3.2290768,0,0,2.9562864,20.293998,19.272217)">
      <rect
         style="fill:#000000;fill-opacity:1;stroke:none;stroke-width:0.191488;stroke-linejoin:round;stroke-opacity:1;stop-color:#000000"
         id="rect19712-6"
         width="7.4152651"
         height="6.2249999"
         x="4.5035424"
         y="17.218"
         rx="0.99520385"
         ry="0.99520385" />
      <path
         d="m 8.3374679,20.314651 -2.6015362,1.274437 c -0.3054449,0.158005 -0.4213037,0.284379 -0.4213037,0.484496 0,0.07371 0.021143,0.157971 0.063191,0.242249 l 0.010535,0.02114 c 0.084262,0.179041 0.32651,0.294912 0.5898234,0.294912 0.1580055,0 0.3054428,-0.03161 0.4423674,-0.0948 L 11.107528,20.304192 6.4205455,18.123954 c -0.1369312,-0.06319 -0.2843771,-0.0948 -0.4423674,-0.0948 -0.2633134,0 -0.5055629,0.115875 -0.5898234,0.294912 l -0.010535,0.02115 c -0.042134,0.08426 -0.063191,0.168521 -0.063191,0.252777 0,0.179063 0.1369312,0.337041 0.4107698,0.473965 z"
         style="font-weight:bold;font-size:10.5833px;line-height:1.25;font-family:'Nimbus Mono PS';-inkscape-font-specification:'Nimbus Mono PS Bold';letter-spacing:0px;word-spacing:0px;fill:#ffffff;fill-opacity:1;stroke-width:0.263313"
         id="path19355-7" />
      <path
         d="m 16.974988,19.911069 c 0,-0.344205 -0.119724,-0.501342 -0.389101,-0.501342 -0.16462,0 -0.24693,0.05986 -0.299308,0.202033 -0.284343,-0.134688 -0.650996,-0.202033 -1.062546,-0.202033 -1.144854,0 -1.945505,0.725823 -1.945505,1.76592 0,0.44148 0.157137,0.823099 0.463928,1.114924 0.374136,0.351688 0.845547,0.501343 1.578853,0.501343 0.553721,0 1.032614,-0.08231 1.339405,-0.231965 0.32924,-0.157137 0.501342,-0.351688 0.501342,-0.553721 0,-0.209515 -0.179585,-0.389101 -0.404066,-0.389101 -0.09728,0 -0.172103,0.02993 -0.24693,0.08979 -0.299308,0.24693 -0.538755,0.314274 -1.137372,0.314274 -0.860512,0 -1.287027,-0.284343 -1.287027,-0.845547 0,-0.6061 0.448963,-0.9952 1.144855,-0.9952 0.321757,0 0.583651,0.05986 0.77072,0.179585 0.08979,0.05238 0.134688,0.112241 0.157137,0.231964 0.03741,0.16462 0.05986,0.209515 0.119723,0.261895 0.06734,0.05986 0.187068,0.104758 0.291826,0.104758 0.127206,0 0.246929,-0.05986 0.329239,-0.157138 0.05986,-0.07483 0.07483,-0.149654 0.07483,-0.344204 z"
         style="font-weight:bold;font-size:7.3059px;line-height:1.25;font-family:'nimbus mono ps';-inkscape-font-specification:'nimbus mono ps Bold';letter-spacing:0px;word-spacing:0px;fill:#e96625;fill-opacity:1;stroke-width:0.187068"
         id="path51180" />
      <path
         d="m 20.003337,18.167596 h -1.361854 c -0.194551,0 -0.261896,0.01496 -0.336723,0.05238 -0.119723,0.07483 -0.19455,0.202033 -0.19455,0.336722 0,0.127206 0.05987,0.239447 0.172103,0.314274 0.07483,0.05986 0.164619,0.07483 0.35917,0.07483 h 0.55372 v 2.963154 h -0.88296 c -0.19455,0 -0.254412,0.0075 -0.329239,0.05238 -0.119724,0.07483 -0.194551,0.202033 -0.194551,0.329239 0,0.254413 0.179586,0.389101 0.52379,0.389101 h 2.574054 c 0.344204,0 0.52379,-0.134688 0.52379,-0.389101 0,-0.119723 -0.05987,-0.231964 -0.16462,-0.306791 -0.08232,-0.05986 -0.157137,-0.07483 -0.35917,-0.07483 h -0.88296 z"
         style="font-weight:bold;font-size:7.3059px;line-height:1.25;font-family:'nimbus mono ps';-inkscape-font-specification:'nimbus mono ps Bold';letter-spacing:0px;word-spacing:0px;fill:#e96625;fill-opacity:1;stroke-width:0.187068"
         id="path51182" />
      <path
         d="m 25.96491,21.452508 v -0.306791 c 0,-1.002684 -0.830582,-1.73599 -1.967953,-1.73599 -1.114925,0 -1.960471,0.740789 -1.960471,1.706059 0,0.980235 0.823098,1.676128 2.005367,1.676128 0.538755,0 1.309474,-0.127207 1.646197,-0.276861 0.187067,-0.07483 0.27686,-0.187068 0.27686,-0.344205 0,-0.216998 -0.16462,-0.389101 -0.381619,-0.389101 -0.08231,0 -0.164619,0.01496 -0.261894,0.03741 -0.673444,0.172102 -0.867995,0.202033 -1.2122,0.202033 -0.621065,0 -0.995201,-0.179586 -1.182268,-0.568686 z m -3.023016,-0.68841 c 0.119723,-0.344205 0.553721,-0.583651 1.062545,-0.583651 0.508825,0 0.935339,0.239446 1.062545,0.583651 z"
         style="font-weight:bold;font-size:7.3059px;line-height:1.25;font-family:'nimbus mono ps';-inkscape-font-specification:'nimbus mono ps Bold';letter-spacing:0px;word-spacing:0px;fill:#e9a17d;fill-opacity:1;stroke-width:0.187068"
         id="path51184" />
      <path
         d="m 29.180324,22.679672 h 0.905409 c 0.351687,0 0.523789,-0.127205 0.523789,-0.389101 0,-0.119723 -0.05986,-0.239446 -0.164619,-0.314273 -0.08232,-0.05238 -0.149655,-0.06734 -0.35917,-0.06734 h -0.08979 v -1.414233 c 0,-0.680927 -0.561203,-1.084993 -1.504025,-1.084993 -0.381619,0 -0.927856,0.08979 -1.29451,0.209516 -0.164619,0.05986 -0.246929,0.172103 -0.246929,0.336723 0,0.216998 0.172102,0.3891 0.389101,0.3891 0.07483,0 0.179585,-0.01496 0.314274,-0.04489 0.359171,-0.08232 0.613582,-0.119723 0.867995,-0.119723 0.456445,0 0.658478,0.09728 0.658478,0.314273 v 0.13469 c -0.261895,-0.0449 -0.508824,-0.06734 -0.755754,-0.06734 -0.665961,0 -1.182268,0.187068 -1.533955,0.553721 -0.187069,0.19455 -0.299309,0.456446 -0.299309,0.68841 0,0.546238 0.621065,0.987718 1.391784,0.987718 0.411549,0 0.845547,-0.08979 1.197234,-0.254413 z m 0.0075,-1.010165 c -0.404067,0.231964 -0.808133,0.351687 -1.2122,0.351687 -0.291825,0 -0.531272,-0.112241 -0.531272,-0.24693 0,-0.104757 0.08979,-0.216998 0.239447,-0.314274 0.202033,-0.127206 0.411548,-0.179584 0.710857,-0.179584 0.24693,0 0.471411,0.02245 0.793168,0.07483 z"
         style="font-weight:bold;font-size:7.3059px;line-height:1.25;font-family:'nimbus mono ps';-inkscape-font-specification:'nimbus mono ps Bold';letter-spacing:0px;word-spacing:0px;fill:#e9a17d;fill-opacity:1;stroke-width:0.187068"
         id="path51186" />
      <path
         d="m 32.971908,19.492037 h -1.040095 c -0.134689,0 -0.276862,0.02245 -0.32924,0.05986 -0.119723,0.06734 -0.19455,0.19455 -0.19455,0.32924 0,0.254411 0.179584,0.3891 0.52379,0.3891 h 0.231964 v 1.638714 H 31.75971 c -0.19455,0 -0.254413,0.0075 -0.32924,0.05238 -0.119723,0.06734 -0.19455,0.202032 -0.19455,0.329238 0,0.254413 0.179585,0.389102 0.52379,0.389102 h 2.222364 c 0.351688,0 0.531273,-0.127206 0.531273,-0.389102 0,-0.119723 -0.05987,-0.231964 -0.16462,-0.306791 -0.0823,-0.05987 -0.157136,-0.07483 -0.366653,-0.07483 h -1.010166 v -1.010166 c 0.680927,-0.538755 0.980236,-0.71834 1.204717,-0.71834 0.09728,0 0.16462,0.02993 0.269378,0.119723 0.119724,0.104758 0.202034,0.142172 0.314274,0.142172 0.216998,0 0.404067,-0.179586 0.404067,-0.396585 0,-0.134688 -0.05987,-0.231964 -0.216999,-0.35917 -0.239447,-0.187067 -0.486377,-0.27686 -0.755754,-0.27686 -0.374136,0 -0.636031,0.112241 -1.219683,0.516307 z"
         style="font-weight:bold;font-size:7.3059px;line-height:1.25;font-family:'nimbus mono ps';-inkscape-font-specification:'nimbus mono ps Bold';letter-spacing:0px;word-spacing:0px;fill:#e9a17d;fill-opacity:1;stroke-width:0.187068"
         id="path51188" />
      <path
         d="m 38.005628,19.49952 h -1.361853 c -0.202034,0 -0.261896,0.0075 -0.336723,0.05238 -0.119723,0.07483 -0.19455,0.19455 -0.19455,0.32924 0,0.261894 0.179585,0.3891 0.531273,0.3891 h 0.55372 v 1.638714 h -0.88296 c -0.19455,0 -0.254413,0.0075 -0.32924,0.05238 -0.119723,0.07483 -0.19455,0.202033 -0.19455,0.329239 0,0.254413 0.179586,0.389101 0.52379,0.389101 h 2.574054 c 0.344204,0 0.523789,-0.134688 0.523789,-0.389101 0,-0.119723 -0.05986,-0.231964 -0.164619,-0.306791 -0.08232,-0.05986 -0.157137,-0.07483 -0.35917,-0.07483 H 38.005628 Z M 37.90087,18.175079 h -0.942822 v 0.808134 h 0.942822 z"
         style="font-weight:bold;font-size:7.3059px;line-height:1.25;font-family:'nimbus mono ps';-inkscape-font-specification:'nimbus mono ps Bold';letter-spacing:0px;word-spacing:0px;fill:#e96625;fill-opacity:1;stroke-width:0.187068"
         id="path51190" />
      <path
         d="m 43.73524,19.911069 c 0,-0.344205 -0.119723,-0.501342 -0.389101,-0.501342 -0.164619,0 -0.246929,0.05986 -0.299308,0.202033 -0.284343,-0.134688 -0.650996,-0.202033 -1.062545,-0.202033 -1.144855,0 -1.945506,0.725823 -1.945506,1.76592 0,0.44148 0.157137,0.823099 0.463928,1.114924 0.374136,0.351688 0.845547,0.501343 1.578853,0.501343 0.553721,0 1.032614,-0.08231 1.339405,-0.231965 0.32924,-0.157137 0.501343,-0.351688 0.501343,-0.553721 0,-0.209515 -0.179586,-0.389101 -0.404067,-0.389101 -0.09728,0 -0.172103,0.02993 -0.24693,0.08979 -0.299308,0.24693 -0.538754,0.314274 -1.137371,0.314274 -0.860513,0 -1.287027,-0.284343 -1.287027,-0.845547 0,-0.6061 0.448963,-0.9952 1.144854,-0.9952 0.321757,0 0.583653,0.05986 0.77072,0.179585 0.08979,0.05238 0.134688,0.112241 0.157137,0.231964 0.03741,0.16462 0.05986,0.209515 0.119723,0.261895 0.06734,0.05986 0.187068,0.104758 0.291827,0.104758 0.127205,0 0.246928,-0.05986 0.329238,-0.157138 0.05987,-0.07483 0.07483,-0.149654 0.07483,-0.344204 z"
         style="font-weight:bold;font-size:7.3059px;line-height:1.25;font-family:'nimbus mono ps';-inkscape-font-specification:'nimbus mono ps Bold';letter-spacing:0px;word-spacing:0px;fill:#e9a17d;fill-opacity:1;stroke-width:0.187068"
         id="path51192" />
      <path
         d="m 48.477132,21.452508 v -0.306791 c 0,-1.002684 -0.830581,-1.73599 -1.967954,-1.73599 -1.114924,0 -1.960471,0.740789 -1.960471,1.706059 0,0.980235 0.823099,1.676128 2.005368,1.676128 0.538755,0 1.309474,-0.127207 1.646197,-0.276861 0.187067,-0.07483 0.27686,-0.187068 0.27686,-0.344205 0,-0.216998 -0.16462,-0.389101 -0.381619,-0.389101 -0.08231,0 -0.164619,0.01496 -0.261895,0.03741 -0.673444,0.172102 -0.867994,0.202033 -1.212199,0.202033 -0.621065,0 -0.995201,-0.179586 -1.182269,-0.568686 z m -3.023016,-0.68841 c 0.119724,-0.344205 0.553721,-0.583651 1.062545,-0.583651 0.508824,0 0.93534,0.239446 1.062545,0.583651 z"
         style="font-weight:bold;font-size:7.3059px;line-height:1.25;font-family:'nimbus mono ps';-inkscape-font-specification:'nimbus mono ps Bold';letter-spacing:0px;word-spacing:0px;fill:#e9a17d;fill-opacity:1;stroke-width:0.187068"
         id="path51194" />
    </g>
  </g>
</svg>
