<?xml version="1.0" encoding="UTF-8" standalone="no"?>
<!-- Created with Inkscape (http://www.inkscape.org/) -->

<svg
   width="800"
   height="600"
   viewBox="0 0 211.66666 158.75"
   version="1.1"
   id="svg5"
   inkscape:version="1.3 (0e150ed6c4, 2023-07-21)"
   sodipodi:docname="clearice.svg"
   xmlns:inkscape="http://www.inkscape.org/namespaces/inkscape"
   xmlns:sodipodi="http://sodipodi.sourceforge.net/DTD/sodipodi-0.dtd"
   xmlns="http://www.w3.org/2000/svg"
   xmlns:svg="http://www.w3.org/2000/svg">
  <sodipodi:namedview
     id="namedview7"
     pagecolor="#ffffff"
     bordercolor="#666666"
     borderopacity="1.0"
     inkscape:pageshadow="2"
     inkscape:pageopacity="0.0"
     inkscape:pagecheckerboard="0"
     inkscape:document-units="px"
     showgrid="false"
     units="px"
     width="800px"
     inkscape:zoom="0.56630543"
     inkscape:cx="-202.18771"
     inkscape:cy="392.89752"
     inkscape:window-width="1920"
     inkscape:window-height="1011"
     inkscape:window-x="0"
     inkscape:window-y="0"
     inkscape:window-maximized="1"
     inkscape:current-layer="g4"
     inkscape:showpageshadow="2"
     inkscape:deskcolor="#d1d1d1" />
  <defs
     id="defs2" />
  <g
     inkscape:label="Layer 1"
     inkscape:groupmode="layer"
     id="layer1">
    <rect
       style="opacity:1;fill:#1e212b;fill-opacity:1;stroke-width:0.3;stroke-linejoin:round;stop-color:#000000"
       id="rect1433"
       width="211.34329"
       height="160.16737"
       x="0"
       y="0"
       rx="1.0000006"
       ry="1.0000006" />
    <g
       id="g4">
      <path
         id="rect1"
         style="fill:#4d8b31;fill-opacity:1;stroke-width:0.264999;paint-order:markers stroke fill"
         d="m 33.111284,62.109128 c -1.465789,0 -2.645833,1.180045 -2.645833,2.645833 v 29.240076 c 0,1.465788 1.180044,2.645833 2.645833,2.645833 h 29.240075 c 1.465789,0 2.645833,-1.180045 2.645833,-2.645833 V 64.754961 c 0,-1.465788 -1.180044,-2.645833 -2.645833,-2.645833 z m 3.827156,8.69456 a 1.984375,1.984375 0 0 1 1.706356,0.575158 l 8.42946,8.628414 a 1.9845734,1.9845734 0 0 1 0,2.773474 l -8.42946,8.627381 a 1.984375,1.984375 0 0 1 -2.80448,0.03307 1.984375,1.984375 0 0 1 -0.03359,-2.806547 l 7.074503,-7.240384 -7.074503,-7.242452 a 1.984375,1.984375 0 0 1 0.03359,-2.80448 1.984375,1.984375 0 0 1 1.098124,-0.543636 z M 49.834294,88.13648 h 8.525578 a 1.984375,1.984375 0 0 1 1.984375,1.984375 1.984375,1.984375 0 0 1 -1.984375,1.984375 h -8.525578 a 1.984375,1.984375 0 0 1 -1.984375,-1.984375 1.984375,1.984375 0 0 1 1.984375,-1.984375 z" />
      <path
         style="font-size:23.6657px;line-height:1.25;font-family:'Roboto Mono';-inkscape-font-specification:'Roboto Mono';letter-spacing:0px;word-spacing:0px;fill:#ffffff;stroke-width:0.264583"
         d="m 76.496659,89.700259 q -1.00533,0 -1.687106,-0.392887 -0.67022,-0.404444 -1.074663,-1.051553 -0.415998,-0.635553 -0.600887,-1.432884 -0.173333,-0.808886 -0.173333,-1.629328 v -0.485332 q 0,-0.808886 0.173333,-1.606217 0.184889,-0.79733 0.600887,-1.444439 0.415999,-0.635554 1.086219,-1.028441 0.681775,-0.404444 1.67555,-0.404444 0.647109,0 1.201774,0.219555 0.56622,0.219555 0.970663,0.600887 0.404443,0.381332 0.635554,0.889775 0.242666,0.496887 0.254221,1.063108 h 2.022216 q 0,-0.947553 -0.381332,-1.77955 -0.381332,-0.831997 -1.051552,-1.44444 -0.681776,-0.600887 -1.617773,-0.947552 -0.924441,-0.358221 -2.033771,-0.358221 -1.421329,0 -2.484436,0.508442 -1.063108,0.508443 -1.767995,1.363552 -0.716442,0.866663 -1.074663,1.999104 -0.358221,1.132441 -0.358221,2.368881 v 0.485332 q 0,1.247996 0.358221,2.380437 0.358221,1.120885 1.074663,1.975993 0.704887,0.866664 1.767995,1.375107 1.063107,0.508443 2.484436,0.508443 0.993775,0 1.90666,-0.33511 0.912886,-0.346666 1.617773,-0.924442 0.704887,-0.56622 1.120885,-1.317329 0.427554,-0.762664 0.43911,-1.594661 h -2.022216 q -0.01156,0.519998 -0.277332,0.970663 -0.254222,0.43911 -0.681776,0.762665 -0.427554,0.33511 -0.982219,0.519998 -0.543109,0.184888 -1.120885,0.184888 z m 9.209748,-16.247058 v 1.860438 h 4.252431 v 14.039955 h -4.252431 v 1.848883 H 96.175706 V 89.353594 H 92.096608 V 73.453201 Z m 19.390163,17.980386 q 1.82577,0 3.06221,-0.727998 1.24799,-0.739553 1.87199,-1.687105 L 108.725,88.001598 q -0.58933,0.762664 -1.47911,1.224885 -0.88977,0.462221 -2.03377,0.462221 -0.86666,0 -1.5831,-0.323555 -0.71645,-0.323554 -1.22489,-0.889775 -0.49689,-0.531554 -0.78577,-1.224885 -0.27734,-0.693331 -0.35823,-1.606217 v -0.08089 h 8.93242 v -0.959108 q 0,-1.305774 -0.33511,-2.426659 -0.32355,-1.120885 -0.99377,-1.952883 -0.67023,-0.820441 -1.68711,-1.282662 -1.00533,-0.473776 -2.35733,-0.473776 -1.07466,0 -2.1031,0.439109 -1.01689,0.43911 -1.81422,1.259552 -0.80888,0.831997 -1.294215,2.033771 -0.485332,1.190218 -0.485332,2.703991 v 0.485332 q 0,1.305773 0.43911,2.415103 0.439107,1.10933 1.224887,1.918216 0.78577,0.808886 1.88355,1.259552 1.10933,0.450665 2.42666,0.450665 z m -0.27734,-11.208853 q 0.82045,0 1.40978,0.300444 0.60088,0.300443 0.99377,0.785775 0.39289,0.485332 0.61244,1.155552 0.21956,0.658664 0.21956,1.23644 v 0.104 h -6.72531 q 0.12711,-0.866664 0.43911,-1.525328 0.32355,-0.67022 0.78577,-1.132441 0.46222,-0.450665 1.04,-0.681776 0.57777,-0.242666 1.22488,-0.242666 z m 17.1715,10.977743 h 2.23022 v -0.184889 q -0.208,-0.519998 -0.32356,-1.213329 -0.11555,-0.704887 -0.11555,-1.328885 v -5.812425 q 0,-1.051552 -0.38133,-1.837328 -0.38134,-0.785775 -1.04,-1.317329 -0.67022,-0.519998 -1.58311,-0.774219 -0.91288,-0.265777 -1.97599,-0.265777 -1.16711,0 -2.09155,0.323554 -0.91289,0.323555 -1.54844,0.843553 -0.64711,0.531554 -0.99377,1.190218 -0.33511,0.658665 -0.34667,1.34044 h 2.14933 q 0,-0.392887 0.18489,-0.751108 0.19644,-0.369777 0.54311,-0.635554 0.34666,-0.265777 0.84355,-0.427554 0.50844,-0.161777 1.14399,-0.161777 0.68178,0 1.22489,0.173333 0.55466,0.173332 0.936,0.485331 0.38133,0.323555 0.58933,0.77422 0.208,0.450665 0.208,1.016886 v 0.982219 h -2.33422 q -1.30577,0 -2.36888,0.254221 -1.05155,0.254221 -1.80266,0.762664 -0.75111,0.519999 -1.16711,1.294218 -0.40444,0.77422 -0.40444,1.802661 0,0.785775 0.30044,1.467551 0.312,0.67022 0.87822,1.155552 0.55467,0.496887 1.352,0.785775 0.80888,0.288888 1.80266,0.288888 0.61244,0 1.15555,-0.127111 0.54311,-0.127111 1.02844,-0.346665 0.47378,-0.219555 0.86667,-0.508443 0.40444,-0.288888 0.72799,-0.612443 0.0347,0.392888 0.104,0.762665 0.0809,0.358221 0.208,0.600887 z m -3.77865,-1.629329 q -0.624,0 -1.09778,-0.161777 -0.47377,-0.161777 -0.78577,-0.450665 -0.312,-0.277332 -0.47378,-0.67022 -0.15022,-0.392888 -0.15022,-0.855108 0,-0.485332 0.17333,-0.866664 0.18489,-0.381332 0.53156,-0.658665 0.48533,-0.392887 1.30577,-0.577776 0.832,-0.196443 1.94133,-0.196443 h 1.98755 v 2.530658 q -0.18489,0.369777 -0.50845,0.716442 -0.32355,0.33511 -0.76266,0.600887 -0.45067,0.265777 -0.99377,0.427554 -0.54311,0.161777 -1.16711,0.161777 z m 17.95727,-11.104852 q -1.36355,0 -2.43821,0.600887 -1.06311,0.589331 -1.82577,1.617772 l -0.0116,-0.311999 -0.0924,-1.67555 h -2.03377 v 12.503071 h 2.14932 v -8.01953 q 0.208,-0.577776 0.52,-1.039997 0.32356,-0.473776 0.75111,-0.79733 0.47378,-0.369777 1.10933,-0.554665 0.63555,-0.196444 1.42133,-0.196444 0.61244,0 1.16711,0.06933 0.56622,0.05778 1.19021,0.196444 l 0.28889,-2.091549 q -0.32355,-0.138666 -0.97066,-0.219555 -0.63555,-0.08089 -1.22489,-0.08089 z m 6.34398,0.23111 v 1.860438 h 4.25244 v 8.79375 h -4.25244 v 1.848883 h 10.4693 v -1.848883 h -4.07909 V 78.699406 Z m 3.9751,-3.281767 q 0,0.519998 0.312,0.866664 0.32356,0.346665 0.97067,0.346665 0.63555,0 0.9591,-0.346665 0.32356,-0.346666 0.32356,-0.866664 0,-0.288888 -0.0925,-0.531554 -0.0924,-0.242666 -0.27733,-0.404443 -0.15022,-0.150222 -0.38133,-0.23111 -0.23111,-0.09245 -0.53155,-0.09245 -0.30045,0 -0.54311,0.09245 -0.23111,0.08089 -0.38134,0.23111 -0.18488,0.173333 -0.27733,0.415999 -0.0809,0.242665 -0.0809,0.519998 z m 15.21862,14.28262 q -1.00533,0 -1.68711,-0.392887 -0.67022,-0.404444 -1.07466,-1.051553 -0.416,-0.635553 -0.60089,-1.432884 -0.17333,-0.808886 -0.17333,-1.629328 v -0.485332 q 0,-0.808886 0.17333,-1.606217 0.18489,-0.79733 0.60089,-1.444439 0.416,-0.635554 1.08622,-1.028441 0.68177,-0.404444 1.67555,-0.404444 0.64711,0 1.20177,0.219555 0.56622,0.219555 0.97066,0.600887 0.40445,0.381332 0.63556,0.889775 0.24266,0.496887 0.25422,1.063108 h 2.02222 q 0,-0.947553 -0.38134,-1.77955 -0.38133,-0.831997 -1.05155,-1.44444 -0.68177,-0.600887 -1.61777,-0.947552 -0.92444,-0.358221 -2.03377,-0.358221 -1.42133,0 -2.48444,0.508442 -1.06311,0.508443 -1.76799,1.363552 -0.71645,0.866663 -1.07467,1.999104 -0.35822,1.132441 -0.35822,2.368881 v 0.485332 q 0,1.247996 0.35822,2.380437 0.35822,1.120885 1.07467,1.975993 0.70488,0.866664 1.76799,1.375107 1.06311,0.508443 2.48444,0.508443 0.99377,0 1.90666,-0.33511 0.91288,-0.346666 1.61777,-0.924442 0.70489,-0.56622 1.12089,-1.317329 0.42755,-0.762664 0.43911,-1.594661 h -2.02222 q -0.0116,0.519998 -0.27733,0.970663 -0.25422,0.43911 -0.68178,0.762665 -0.42755,0.33511 -0.98222,0.519998 -0.54311,0.184888 -1.12088,0.184888 z m 14.39818,1.733328 q 1.82577,0 3.06221,-0.727998 1.248,-0.739553 1.87199,-1.687105 l -1.30577,-1.016886 q -0.58933,0.762664 -1.47911,1.224885 -0.88977,0.462221 -2.03377,0.462221 -0.86666,0 -1.5831,-0.323555 -0.71645,-0.323554 -1.22489,-0.889775 -0.49689,-0.531554 -0.78577,-1.224885 -0.27734,-0.693331 -0.35822,-1.606217 v -0.08089 h 8.93241 v -0.959108 q 0,-1.305774 -0.33511,-2.426659 -0.32355,-1.120885 -0.99377,-1.952883 -0.67022,-0.820441 -1.68711,-1.282662 -1.00533,-0.473776 -2.35733,-0.473776 -1.07466,0 -2.1031,0.439109 -1.01688,0.43911 -1.81422,1.259552 -0.80888,0.831997 -1.29421,2.033771 -0.48534,1.190218 -0.48534,2.703991 v 0.485332 q 0,1.305773 0.43911,2.415103 0.43911,1.10933 1.22489,1.918216 0.78577,0.808886 1.88355,1.259552 1.10933,0.450665 2.42666,0.450665 z m -0.27734,-11.208853 q 0.82045,0 1.40978,0.300444 0.60089,0.300443 0.99377,0.785775 0.39289,0.485332 0.61245,1.155552 0.21955,0.658664 0.21955,1.23644 v 0.104 h -6.72531 q 0.12711,-0.866664 0.43911,-1.525328 0.32355,-0.67022 0.78577,-1.132441 0.46222,-0.450665 1.04,-0.681776 0.57778,-0.242666 1.22488,-0.242666 z"
         id="text2"
         aria-label="clearice" />
    </g>
    <path
       style="fill:none;stroke:#ffffff;stroke-width:3.96875;stroke-linecap:round;stroke-linejoin:round;stroke-dasharray:none;stroke-opacity:1"
       d="m -136.65729,77.126039 8.42919,8.627868 -8.42919,8.627868"
       id="path1-8"
       sodipodi:nodetypes="ccc" />
    <path
       style="fill:none;stroke:#ffffff;stroke-width:3.96875;stroke-linecap:round;stroke-linejoin:miter;stroke-dasharray:none;stroke-opacity:1"
       d="m -124.0499,94.48124 h 8.52538"
       id="path2-7" />
  </g>
</svg>
