<?xml version="1.0" encoding="UTF-8" standalone="no"?>
<!-- Created with Inkscape (http://www.inkscape.org/) -->

<svg
   width="800"
   height="600"
   viewBox="0 0 211.66666 158.75"
   version="1.1"
   id="svg5"
   inkscape:version="1.3 (0e150ed6c4, 2023-07-21)"
   sodipodi:docname="clearice.svg"
   xmlns:inkscape="http://www.inkscape.org/namespaces/inkscape"
   xmlns:sodipodi="http://sodipodi.sourceforge.net/DTD/sodipodi-0.dtd"
   xmlns="http://www.w3.org/2000/svg"
   xmlns:svg="http://www.w3.org/2000/svg">
  <sodipodi:namedview
     id="namedview7"
     pagecolor="#ffffff"
     bordercolor="#666666"
     borderopacity="1.0"
     inkscape:pageshadow="2"
     inkscape:pageopacity="0.0"
     inkscape:pagecheckerboard="0"
     inkscape:document-units="px"
     showgrid="false"
     units="px"
     width="800px"
     inkscape:zoom="0.56630543"
     inkscape:cx="-201.3048"
     inkscape:cy="392.89752"
     inkscape:window-width="1920"
     inkscape:window-height="1011"
     inkscape:window-x="0"
     inkscape:window-y="0"
     inkscape:window-maximized="1"
     inkscape:current-layer="g4"
     inkscape:showpageshadow="2"
     inkscape:deskcolor="#d1d1d1" />
  <defs
     id="defs2" />
  <g
     inkscape:label="Layer 1"
     inkscape:groupmode="layer"
     id="layer1">
    <rect
       style="opacity:1;fill:#1e212b;fill-opacity:1;stroke-width:0.3;stroke-linejoin:round;stop-color:#000000"
       id="rect1433"
       width="211.34329"
       height="160.16737"
       x="0"
       y="0"
       rx="1.0000006"
       ry="1.0000006" />
    <g
       id="g4">
      <path
         id="rect1"
         style="fill:#4d8b31;fill-opacity:1;stroke-width:0.264999;paint-order:markers stroke fill"
         d="m 33.111284,62.109128 c -1.465789,0 -2.645833,1.180045 -2.645833,2.645833 v 29.240076 c 0,1.465788 1.180044,2.645833 2.645833,2.645833 h 29.240075 c 1.465789,0 2.645833,-1.180045 2.645833,-2.645833 V 64.754961 c 0,-1.465788 -1.180044,-2.645833 -2.645833,-2.645833 z m 3.827156,8.69456 a 1.984375,1.984375 0 0 1 1.706356,0.575158 l 8.42946,8.628414 a 1.9845734,1.9845734 0 0 1 0,2.773474 l -8.42946,8.627381 a 1.984375,1.984375 0 0 1 -2.80448,0.03307 1.984375,1.984375 0 0 1 -0.03359,-2.806547 l 7.074503,-7.240384 -7.074503,-7.242452 a 1.984375,1.984375 0 0 1 0.03359,-2.80448 1.984375,1.984375 0 0 1 1.098124,-0.543636 z M 49.834294,88.13648 h 8.525578 a 1.984375,1.984375 0 0 1 1.984375,1.984375 1.984375,1.984375 0 0 1 -1.984375,1.984375 h -8.525578 a 1.984375,1.984375 0 0 1 -1.984375,-1.984375 1.984375,1.984375 0 0 1 1.984375,-1.984375 z" />
      <text
         xml:space="preserve"
         style="font-size:23.6657px;line-height:1.25;font-family:sans-serif;letter-spacing:0px;word-spacing:0px;fill:#ffffff;fill-opacity:1;stroke-width:0.264583"
         x="69.158905"
         y="91.202477"
         id="text2"><tspan
           sodipodi:role="line"
           id="tspan2"
           style="font-style:normal;font-variant:normal;font-weight:normal;font-stretch:normal;font-family:'Roboto Mono';-inkscape-font-specification:'Roboto Mono';fill:#ffffff;fill-opacity:1;stroke-width:0.264583"
           x="69.158905"
           y="91.202477">clearice</tspan></text>
    </g>
    <path
       style="fill:none;stroke:#ffffff;stroke-width:3.96875;stroke-linecap:round;stroke-linejoin:round;stroke-dasharray:none;stroke-opacity:1"
       d="m -136.65729,77.126039 8.42919,8.627868 -8.42919,8.627868"
       id="path1-8"
       sodipodi:nodetypes="ccc" />
    <path
       style="fill:none;stroke:#ffffff;stroke-width:3.96875;stroke-linecap:round;stroke-linejoin:miter;stroke-dasharray:none;stroke-opacity:1"
       d="m -124.0499,94.48124 h 8.52538"
       id="path2-7" />
  </g>
</svg>
