<?xml version="1.0" encoding="UTF-8" standalone="no"?>
<!-- Created with Inkscape (http://www.inkscape.org/) -->

<svg
   width="210mm"
   height="297mm"
   viewBox="0 0 210 297"
   version="1.1"
   id="svg1"
   inkscape:version="1.3 (0e150ed6c4, 2023-07-21)"
   sodipodi:docname="foonoo.svg"
   xmlns:inkscape="http://www.inkscape.org/namespaces/inkscape"
   xmlns:sodipodi="http://sodipodi.sourceforge.net/DTD/sodipodi-0.dtd"
   xmlns="http://www.w3.org/2000/svg"
   xmlns:svg="http://www.w3.org/2000/svg">
  <sodipodi:namedview
     id="namedview1"
     pagecolor="#ffffff"
     bordercolor="#666666"
     borderopacity="1.0"
     inkscape:showpageshadow="2"
     inkscape:pageopacity="0.0"
     inkscape:pagecheckerboard="0"
     inkscape:deskcolor="#d1d1d1"
     inkscape:document-units="mm"
     inkscape:zoom="1.4790474"
     inkscape:cx="168.01355"
     inkscape:cy="458.06511"
     inkscape:window-width="1920"
     inkscape:window-height="1043"
     inkscape:window-x="0"
     inkscape:window-y="0"
     inkscape:window-maximized="1"
     inkscape:current-layer="layer1" />
  <defs
     id="defs1" />
  <g
     inkscape:label="Layer 1"
     inkscape:groupmode="layer"
     id="layer1">
    <path
       id="path1"
       style="fill:#ff8212;stroke:none;stroke-width:0.264583px;stroke-linecap:butt;stroke-linejoin:miter;stroke-opacity:1;fill-opacity:1"
       d="M 70.76984 58.725614 C 71.555211 59.280163 72.122941 59.958191 72.535624 60.861401 C 74.119282 64.526297 74.51584 68.232711 73.860091 72.142367 C 73.404784 73.939835 72.741661 75.641874 71.926359 77.266602 C 73.964474 80.635126 74.670043 84.469149 74.593896 88.021501 C 74.67802 90.467341 74.443869 93.163919 73.378984 95.865466 C 72.019689 99.543167 70.008532 102.95165 67.478569 105.91033 A 5.0964082 5.0964082 0 0 1 67.197449 106.21264 C 64.918458 108.47645 62.212218 110.1021 59.398442 111.18753 A 5.0964082 5.0964082 0 0 1 59.054793 111.30638 C 56.1655 112.19014 52.396429 112.60149 48.835779 110.63097 C 48.715968 112.50334 49.050407 114.36078 50.097201 116.04046 C 52.20282 119.67247 56.833815 120.27391 60.645394 120.08208 C 65.855767 119.61742 70.948684 117.47018 74.77373 113.86695 C 78.429842 110.8382 81.461247 107.09507 83.568026 102.83197 C 87.14619 96.581559 86.6502 89.137913 86.987455 82.200151 C 86.589989 74.602445 81.707718 64.861454 77.568392 61.902165 C 73.429066 58.942876 71.886285 58.996886 70.76984 58.725614 z " />
    <path
       style="fill:#ffd54b;stroke:none;stroke-width:0.264583px;stroke-linecap:butt;stroke-linejoin:miter;stroke-opacity:1;fill-opacity:1"
       d="m 56.264194,74.054795 c 3.560636,0.131058 7.456795,1.52991 10.015929,4.106884 2.411021,2.677609 3.330972,6.367974 3.227475,9.903524 0.08106,2.026128 -0.120579,4.070244 -0.875988,5.967284 -1.143691,3.120084 -2.868038,6.041233 -5.025572,8.564373 -1.701765,1.69043 -3.811209,2.97622 -6.041591,3.8366 -2.164835,0.66216 -4.747668,0.76854 -6.701033,-0.52528 -1.898333,-1.5277 -2.419988,-4.11651 -2.662405,-6.414717 -0.164128,-2.661252 0.956218,-5.304704 2.884239,-7.125885 2.206348,-2.527166 5.037145,-4.490473 6.943733,-7.27728 1.233791,-2.303017 1.413436,-5.547685 0.821054,-7.796392 -0.592382,-2.248708 -2.585841,-3.239111 -2.585841,-3.239111 z"
       id="path2"
       sodipodi:nodetypes="cccccccccczc" />
    <path
       id="path3"
       style="color:#000000;fill:#862020;stroke-linecap:round;stroke-linejoin:round;-inkscape-stroke:none;paint-order:markers stroke fill;fill-opacity:1"
       d="M 66.296729 67.57417 C 40.495626 67.57417 20.310637 89.862048 19.844267 116.06992 L 44.657222 116.06992 C 43.977363 114.13606 43.75761 112.14471 43.874841 110.31265 A 4.9713981 4.9713981 0 0 1 45.278373 107.19501 C 43.682256 104.69194 43.336411 101.96018 43.132768 100.02955 A 5.0964082 5.0964082 0 0 1 43.115198 99.808378 C 42.852882 95.555066 44.562441 91.574735 47.515446 88.743937 C 50.03641 85.92391 52.323416 84.130015 53.554871 82.499874 C 53.911557 81.657528 54.13223 79.390487 53.921773 78.591585 C 53.953015 78.710182 53.998254 78.618974 53.998254 78.618974 A 5.0964082 5.0964082 0 0 1 56.451335 68.962716 C 60.562012 69.114018 64.81774 70.394378 68.306942 73.162459 C 68.562769 72.491101 68.781842 71.812754 68.964783 71.124858 C 69.154764 69.916002 69.214659 68.78175 69.148751 67.675456 C 68.205363 67.614734 67.256385 67.57417 66.296729 67.57417 z M 90.765519 75.01971 C 91.403783 77.289313 91.831574 79.617768 91.953044 81.939701 A 4.9713981 4.9713981 0 0 1 91.953044 82.441479 C 91.637234 88.938083 92.379627 97.315215 87.933651 105.17963 C 87.43374 106.17944 86.881005 107.1457 86.298092 108.09056 C 87.129722 110.54916 87.638831 113.22115 87.728495 116.06992 L 112.74764 116.06992 C 112.44493 99.057313 103.82845 83.704346 90.765519 75.01971 z " />
  </g>
</svg>
