<?xml version="1.0" encoding="UTF-8" standalone="no"?>
<!-- Created with Inkscape (http://www.inkscape.org/) -->

<svg
   width="800"
   height="600"
   viewBox="0 0 211.66666 158.75"
   version="1.1"
   id="svg1"
   inkscape:version="1.3 (0e150ed, 2023-07-21)"
   sodipodi:docname="foonoo.svg"
   xmlns:inkscape="http://www.inkscape.org/namespaces/inkscape"
   xmlns:sodipodi="http://sodipodi.sourceforge.net/DTD/sodipodi-0.dtd"
   xmlns:xlink="http://www.w3.org/1999/xlink"
   xmlns="http://www.w3.org/2000/svg"
   xmlns:svg="http://www.w3.org/2000/svg">
  <sodipodi:namedview
     id="namedview1"
     pagecolor="#ffffff"
     bordercolor="#666666"
     borderopacity="1.0"
     inkscape:showpageshadow="2"
     inkscape:pageopacity="0.0"
     inkscape:pagecheckerboard="0"
     inkscape:deskcolor="#d1d1d1"
     inkscape:document-units="mm"
     inkscape:zoom="0.74029882"
     inkscape:cx="395.11072"
     inkscape:cy="560.58444"
     inkscape:window-width="1392"
     inkscape:window-height="1027"
     inkscape:window-x="0"
     inkscape:window-y="25"
     inkscape:window-maximized="0"
     inkscape:current-layer="g1"
     showgrid="false" />
  <defs
     id="defs1">
    <linearGradient
       id="linearGradient4"
       inkscape:collect="always">
      <stop
         style="stop-color:#4129b3;stop-opacity:1;"
         offset="0"
         id="stop3" />
      <stop
         style="stop-color:#8571e4;stop-opacity:1;"
         offset="1"
         id="stop4" />
    </linearGradient>
    <linearGradient
       inkscape:collect="always"
       xlink:href="#linearGradient4"
       id="linearGradient2-7"
       x1="81.629768"
       y1="-0.1786997"
       x2="81.629768"
       y2="159.33929"
       gradientUnits="userSpaceOnUse" />
  </defs>
  <g
     inkscape:label="Layer 1"
     inkscape:groupmode="layer"
     id="layer1">
    <rect
       style="fill:url(#linearGradient2-7);stroke-width:1;stroke-linecap:round;stroke-linejoin:round;paint-order:markers stroke fill"
       id="rect1-2"
       width="211.69569"
       height="158.82553"
       x="0.11727212"
       y="0.022337573" />
    <g
       id="g1"
       transform="translate(6.0457283,10.212059)">
      <g
         id="g4"
         transform="translate(-0.70456832)">
        <path
           style="font-weight:300;font-size:28.0121px;line-height:1.25;font-family:Mitr;-inkscape-font-specification:'Mitr Light';letter-spacing:0px;word-spacing:0px;fill:#ffffff;stroke-width:0.264583"
           d="m 84.944194,78.476964 q -0.840363,0 -0.840363,-0.840363 V 60.269099 q 0,-0.840363 0.840363,-0.840363 h 11.653034 q 0.448193,0 0.616266,0.168072 0.196085,0.168073 0.196085,0.588254 v 0.476206 q 0,0.448194 -0.196085,0.644278 -0.168073,0.168073 -0.616266,0.168073 h -9.944296 v 6.442783 h 7.479231 q 0.448193,0 0.644278,0.168073 0.196085,0.168072 0.196085,0.588255 v 0.476204 q 0,0.448194 -0.196085,0.644279 -0.196085,0.168072 -0.644278,0.168072 h -7.479231 v 7.675316 q 0,0.420181 -0.196085,0.644278 -0.196084,0.196085 -0.644278,0.196085 z m 19.104246,0.420181 q -3.55753,0 -5.462357,-1.904822 -1.904823,-1.932835 -1.904823,-5.238263 0,-3.305428 1.904823,-5.210251 1.904827,-1.932835 5.462357,-1.932835 3.52953,0 5.43435,1.932835 1.93284,1.904823 1.93284,5.210251 0,3.305428 -1.93284,5.238263 -1.90482,1.904822 -5.43435,1.904822 z m 0,-1.960847 q 2.35302,0 3.58555,-1.316568 1.26055,-1.344581 1.26055,-3.86567 0,-2.493077 -1.23254,-3.809646 -1.23253,-1.344581 -3.61356,-1.344581 -2.38103,0 -3.64157,1.344581 -1.232533,1.316569 -1.232533,3.809646 0,2.493077 1.232533,3.837658 1.26054,1.34458 3.64157,1.34458 z m 16.66724,1.960847 q -3.55754,0 -5.46236,-1.904822 -1.90483,-1.932835 -1.90483,-5.238263 0,-3.305428 1.90483,-5.210251 1.90482,-1.932835 5.46236,-1.932835 3.52952,0 5.43434,1.932835 1.93284,1.904823 1.93284,5.210251 0,3.305428 -1.93284,5.238263 -1.90482,1.904822 -5.43434,1.904822 z m 0,-1.960847 q 2.35301,0 3.58555,-1.316568 1.26054,-1.344581 1.26054,-3.86567 0,-2.493077 -1.23253,-3.809646 -1.23254,-1.344581 -3.61356,-1.344581 -2.38103,0 -3.64158,1.344581 -1.23253,1.316569 -1.23253,3.809646 0,2.493077 1.23253,3.837658 1.26055,1.34458 3.64158,1.34458 z m 11.42896,1.540666 q -0.86838,0 -0.86838,-0.840363 V 65.731458 q 0,-0.392169 0.11205,-0.53223 0.14006,-0.168072 0.53223,-0.168072 h 0.9244 q 0.61627,0 0.61627,0.588254 v 1.288556 q 1.98886,-2.296992 5.77049,-2.296992 2.29699,0 3.64157,1.204521 1.3726,1.176508 1.3726,3.585548 v 8.235558 q 0,0.420181 -0.19609,0.644278 -0.19608,0.196085 -0.64428,0.196085 h -0.84036 q -0.86838,0 -0.86838,-0.840363 v -8.095497 q 0,-1.652714 -0.78433,-2.325004 -0.75633,-0.672291 -2.46507,-0.672291 -1.1485,0 -2.24097,0.448194 -1.06446,0.420181 -1.73675,1.20452 -0.64428,0.784339 -0.64428,1.792774 v 7.647304 q 0,0.420181 -0.19608,0.644278 -0.19609,0.196085 -0.64428,0.196085 z m 22.10159,0.420181 q -3.55754,0 -5.46236,-1.904822 -1.90482,-1.932835 -1.90482,-5.238263 0,-3.305428 1.90482,-5.210251 1.90482,-1.932835 5.46236,-1.932835 3.52952,0 5.43435,1.932835 1.93283,1.904823 1.93283,5.210251 0,3.305428 -1.93283,5.238263 -1.90483,1.904822 -5.43435,1.904822 z m 0,-1.960847 q 2.35301,0 3.58555,-1.316568 1.26054,-1.344581 1.26054,-3.86567 0,-2.493077 -1.23253,-3.809646 -1.23253,-1.344581 -3.61356,-1.344581 -2.38103,0 -3.64157,1.344581 -1.23254,1.316569 -1.23254,3.809646 0,2.493077 1.23254,3.837658 1.26054,1.34458 3.64157,1.34458 z m 16.66723,1.960847 q -3.55753,0 -5.46236,-1.904822 -1.90482,-1.932835 -1.90482,-5.238263 0,-3.305428 1.90482,-5.210251 1.90483,-1.932835 5.46236,-1.932835 3.52953,0 5.43435,1.932835 1.93284,1.904823 1.93284,5.210251 0,3.305428 -1.93284,5.238263 -1.90482,1.904822 -5.43435,1.904822 z m 0,-1.960847 q 2.35302,0 3.58555,-1.316568 1.26055,-1.344581 1.26055,-3.86567 0,-2.493077 -1.23253,-3.809646 -1.23254,-1.344581 -3.61357,-1.344581 -2.38102,0 -3.64157,1.344581 -1.23253,1.316569 -1.23253,3.809646 0,2.493077 1.23253,3.837658 1.26055,1.34458 3.64157,1.34458 z"
           id="text1"
           aria-label="Foonoo" />
        <g
           id="g2"
           transform="translate(1.0722022,1.6912243)">
          <g
             id="g9"
             transform="matrix(0.5183103,0,0,0.5183103,18.277688,43.233728)"
             style="fill:#ffffff;fill-opacity:1">
            <path
               style="fill:#ffffff;fill-opacity:1;stroke-width:0.264583"
               d="m 92.017063,31.445855 -10.46086,7.58455 a 30,30 0 0 1 4.841048,14.900382 H 99.340647 A 43,43 0 0 0 92.017063,31.445855 Z"
               id="path8" />
            <path
               style="fill:#ffffff;fill-opacity:1;stroke-width:0.264583"
               d="M 20.860683,31.445855 A 43,43 0 0 0 13.537099,53.930787 H 26.550775 A 30,30 0 0 1 31.350999,39.051592 Z"
               id="path7" />
            <path
               style="fill:#ffffff;fill-opacity:1;stroke-width:0.264583"
               d="m 71.124799,15.103701 -4.009575,12.312943 a 30,30 0 0 1 4.323767,2.033467 30,30 0 0 1 8.352462,7.154085 L 90.309674,28.976755 A 43,43 0 0 0 77.938853,18.191884 43,43 0 0 0 71.124799,15.103701 Z"
               id="path6" />
            <path
               style="fill:#ffffff;fill-opacity:1;stroke-width:0.264583"
               d="m 41.752948,15.103701 a 43,43 0 0 0 -6.814054,3.088183 43,43 0 0 0 -12.370821,10.784871 l 10.582816,7.674467 a 30,30 0 0 1 8.287866,-7.201111 30,30 0 0 1 4.323767,-2.033467 z"
               id="path5" />
            <path
               style="fill:#ffffff;fill-opacity:1;stroke-width:0.264583"
               d="m 56.438873,9.0712665 c -4.008386,0.014466 -7.995061,0.5893341 -11.844238,1.7079065 l 4.034896,15.753804 c 5.115074,-1.379105 10.504128,-1.379105 15.619202,0 L 68.283628,10.779173 C 64.434285,9.6605529 60.447432,9.0856846 56.438873,9.0712665 Z"
               id="path1"
               sodipodi:nodetypes="cccccc" />
            <path
               style="fill:#ffffff;fill-opacity:1;stroke:#ff1f1f;stroke-dasharray:none;stroke-opacity:1"
               d="m 13.438914,12.430995 v 0"
               id="path4-58" />
            <rect
               style="fill:#ffffff;fill-opacity:1;stroke-width:0.262204"
               id="rect8"
               width="13.033359"
               height="12.934955"
               x="13.44401"
               y="56.469025" />
            <rect
               style="fill:#ffffff;fill-opacity:1;stroke-width:0.262204"
               id="rect8-2"
               width="13.033359"
               height="12.934955"
               x="86.469032"
               y="56.469025" />
          </g>
          <rect
             style="fill:#ffffff;fill-opacity:1;stroke-width:0.138614"
             id="rect9"
             width="51.831028"
             height="6.7723866"
             x="21.631495"
             y="80.235588" />
          <path
             id="path1-7"
             style="font-variation-settings:normal;vector-effect:none;fill:#ff4b4b;fill-opacity:1;stroke:none;stroke-width:0.0637698px;stroke-linecap:butt;stroke-linejoin:miter;stroke-miterlimit:4;stroke-dasharray:none;stroke-dashoffset:0;stroke-opacity:1;-inkscape-stroke:none;stop-color:#000000"
             d="m 49.357616,60.86897 c -3.208,0.540863 -6.033485,2.560251 -7.99501,5.102391 -1.564689,2.074401 -2.513189,4.654458 -2.387199,7.271491 -0.05815,2.47613 1.902485,4.837569 4.307464,4.837569 2.404978,0 7.694321,0 9.421472,0 1.72715,0 3.397686,-1.902416 3.42467,-3.700611 0.02698,-1.798195 -0.654036,-3.66688 -1.897995,-5.130468 -1.559451,-1.7936 -3.805598,-3.218319 -6.356021,-3.599923 0.640039,0.133799 1.094085,0.602727 1.405403,1.089757 0.703223,1.199529 1.381276,2.566779 1.031418,3.944373 -0.07578,0.351324 -0.252746,0.673384 -0.50179,0.945245 -0.632375,-0.612275 -1.417148,-1.068046 -2.116576,-1.599293 -0.721151,-0.454992 -1.239832,-1.183219 -1.401046,-2.025319 -0.440059,-1.952517 0.412667,-3.890484 1.297202,-5.590624 0.391586,-0.690287 0.962948,-1.354951 1.768008,-1.544588 z"
             sodipodi:nodetypes="ccczzzccccccccc" />
        </g>
      </g>
    </g>
  </g>
</svg>
