<?xml version="1.0" encoding="UTF-8" standalone="no"?>
<!-- Created with Inkscape (http://www.inkscape.org/) -->

<svg
   width="800"
   height="600"
   viewBox="0 0 211.66666 158.75"
   version="1.1"
   id="svg1"
   inkscape:version="1.3 (0e150ed6c4, 2023-07-21)"
   sodipodi:docname="foonoo1.svg"
   xmlns:inkscape="http://www.inkscape.org/namespaces/inkscape"
   xmlns:sodipodi="http://sodipodi.sourceforge.net/DTD/sodipodi-0.dtd"
   xmlns="http://www.w3.org/2000/svg"
   xmlns:svg="http://www.w3.org/2000/svg">
  <sodipodi:namedview
     id="namedview1"
     pagecolor="#ffffff"
     bordercolor="#666666"
     borderopacity="1.0"
     inkscape:showpageshadow="2"
     inkscape:pageopacity="0.0"
     inkscape:pagecheckerboard="0"
     inkscape:deskcolor="#d1d1d1"
     inkscape:document-units="mm"
     inkscape:zoom="0.74029882"
     inkscape:cx="396.46153"
     inkscape:cy="561.25984"
     inkscape:window-width="1920"
     inkscape:window-height="1011"
     inkscape:window-x="0"
     inkscape:window-y="0"
     inkscape:window-maximized="1"
     inkscape:current-layer="layer1" />
  <defs
     id="defs1" />
  <g
     inkscape:label="Layer 1"
     inkscape:groupmode="layer"
     id="layer1">
    <path
       id="path1"
       style="fill:#ff8212;fill-opacity:1;stroke:none;stroke-width:0.264583px;stroke-linecap:butt;stroke-linejoin:miter;stroke-opacity:1"
       d="m 50.077894,48.680557 c 0.524085,0.370056 0.902936,0.822511 1.178322,1.425231 1.056789,2.445618 1.321415,4.918936 0.883828,7.527885 -0.30383,1.19946 -0.746337,2.335245 -1.290395,3.419441 1.360051,2.247841 1.830883,4.806322 1.780069,7.176834 0.05613,1.63213 -0.100114,3.43158 -0.81072,5.23434 -0.907069,2.45416 -2.249131,4.728673 -3.937396,6.703025 a 3.4008755,3.4008755 0 0 1 -0.187594,0.201734 c -1.52079,1.510659 -3.326686,2.595469 -5.204342,3.319786 a 3.4008755,3.4008755 0 0 1 -0.22932,0.07931 c -1.928049,0.589741 -4.443182,0.864238 -6.819233,-0.450707 -0.07995,1.249448 0.143223,2.488934 0.841757,3.609795 1.405097,2.423671 4.495399,2.825017 7.038897,2.697007 3.476925,-0.310071 6.875471,-1.742943 9.427956,-4.147405 2.439754,-2.02111 4.462636,-4.518932 5.868507,-7.363734 2.387739,-4.170951 2.05676,-9.13816 2.281813,-13.767785 -0.265232,-5.070016 -3.523212,-11.57026 -6.285419,-13.545018 -2.762206,-1.974759 -3.791717,-1.938718 -4.53673,-2.119739 z" />
    <path
       style="fill:#ffd54b;fill-opacity:1;stroke:none;stroke-width:0.264583px;stroke-linecap:butt;stroke-linejoin:miter;stroke-opacity:1"
       d="m 40.398156,58.909847 c 2.376042,0.08746 4.975981,1.020921 6.683713,2.740561 1.608894,1.786792 2.222785,4.2494 2.15372,6.608702 0.05409,1.352053 -0.08046,2.716105 -0.584554,3.982015 -0.763194,2.082062 -1.913865,4.03137 -3.353606,5.715082 -1.135601,1.128038 -2.543251,1.986056 -4.031603,2.560195 -1.444613,0.441865 -3.168159,0.512853 -4.471655,-0.350524 -1.266774,-1.019446 -1.614879,-2.746981 -1.776645,-4.280596 -0.109524,-1.775874 0.638092,-3.53987 1.924676,-4.755158 1.472315,-1.686402 3.361329,-2.996535 4.633611,-4.85619 0.823319,-1.536824 0.943198,-3.70202 0.547896,-5.202602 -0.395301,-1.500577 -1.725553,-2.161485 -1.725553,-2.161485 z"
       id="path2"
       sodipodi:nodetypes="cccccccccczc" />
    <path
       id="path3"
       style="color:#000000;fill:#862020;fill-opacity:1;stroke-width:1;stroke-linecap:round;stroke-linejoin:round;-inkscape-stroke:none;paint-order:markers stroke fill"
       d="m 47.09295,54.585275 c -17.217291,0 -30.686901,14.872888 -30.998114,32.361614 h 16.557891 c -0.453675,-1.290478 -0.600318,-2.619322 -0.522089,-3.841871 a 3.3174553,3.3174553 0 0 1 0.936588,-2.080427 c -1.065102,-1.67032 -1.295887,-3.493246 -1.43178,-4.781571 a 3.4008755,3.4008755 0 0 1 -0.01172,-0.147589 c -0.175046,-2.838276 0.965757,-5.494383 2.936322,-7.383399 1.68226,-1.881823 3.208398,-3.078907 4.030158,-4.166713 0.23802,-0.562101 0.385277,-2.074915 0.244837,-2.608035 0.02085,0.07914 0.05104,0.01828 0.05104,0.01828 a 3.4008755,3.4008755 0 0 1 1.636961,-6.443695 c 2.743089,0.100963 5.582972,0.955358 7.911345,2.802521 0.170716,-0.448004 0.316905,-0.900673 0.438983,-1.359707 0.126776,-0.806683 0.166744,-1.563577 0.122763,-2.301814 -0.62953,-0.04051 -1.262791,-0.06759 -1.903178,-0.06759 z m 16.328227,4.968471 c 0.425919,1.514523 0.711387,3.068323 0.792445,4.617767 a 3.3174553,3.3174553 0 0 1 0,0.334841 c -0.210743,4.335236 0.284663,9.925364 -2.682174,15.173357 -0.333595,0.667181 -0.70244,1.311975 -1.091422,1.942488 0.554953,1.640644 0.894686,3.423685 0.954519,5.32469 H 78.090032 C 77.888031,75.594236 72.138179,65.349071 63.421177,59.553746 Z" />
    <text
       xml:space="preserve"
       style="font-size:28.0121px;line-height:1.25;font-family:sans-serif;letter-spacing:0px;word-spacing:0px;stroke-width:0.264583;fill:#858585;fill-opacity:1"
       x="83.285355"
       y="80.966171"
       id="text1"><tspan
         sodipodi:role="line"
         id="tspan1"
         style="font-style:normal;font-variant:normal;font-weight:300;font-stretch:normal;font-family:Mitr;-inkscape-font-specification:'Mitr Light';stroke-width:0.264583;fill:#858585;fill-opacity:1"
         x="83.285355"
         y="80.966171">Foonoo</tspan></text>
  </g>
</svg>
