<?xml version="1.0" encoding="UTF-8" standalone="no"?>
<!-- Created with Inkscape (http://www.inkscape.org/) -->

<svg
   width="800"
   height="600"
   viewBox="0 0 211.66666 158.75"
   version="1.1"
   id="svg2881"
   inkscape:version="1.1 (c68e22c387, 2021-05-23)"
   sodipodi:docname="ntentan.svg"
   xmlns:inkscape="http://www.inkscape.org/namespaces/inkscape"
   xmlns:sodipodi="http://sodipodi.sourceforge.net/DTD/sodipodi-0.dtd"
   xmlns="http://www.w3.org/2000/svg"
   xmlns:svg="http://www.w3.org/2000/svg">
  <sodipodi:namedview
     id="namedview2883"
     pagecolor="#ffffff"
     bordercolor="#666666"
     borderopacity="1.0"
     inkscape:pageshadow="2"
     inkscape:pageopacity="0.0"
     inkscape:pagecheckerboard="0"
     inkscape:document-units="px"
     showgrid="false"
     units="px"
     inkscape:zoom="0.80087682"
     inkscape:cx="270.95303"
     inkscape:cy="408.30249"
     inkscape:window-width="1920"
     inkscape:window-height="1043"
     inkscape:window-x="0"
     inkscape:window-y="0"
     inkscape:window-maximized="1"
     inkscape:current-layer="layer1" />
  <defs
     id="defs2878" />
  <g
     inkscape:label="Layer 1"
     inkscape:groupmode="layer"
     id="layer1">
    <rect
       style="opacity:0.431338;fill:#a9fffc;fill-opacity:1;stroke-width:0.3;stroke-linejoin:round;stop-color:#000000"
       id="rect3316"
       width="211.382"
       height="158.03418"
       x="0.27874723"
       y="1.2788819"
       rx="1.0000006"
       ry="1.0000006" />
    <g
       id="layer1-3"
       transform="matrix(0.16029458,0,0,0.16029458,27.322449,47.904492)">
      <g
         id="g1762"
         transform="matrix(0.61811854,0,0,0.61811854,818.39333,79.133878)">
        <path
           inkscape:connector-curvature="0"
           transform="rotate(16.474817)"
           style="fill:#e77600;fill-opacity:1;stroke:none;stroke-width:6.63094;stroke-linecap:round;stroke-linejoin:bevel;stroke-miterlimit:4;stroke-dasharray:none;stroke-opacity:1"
           d="m 139.0075,215.09511 a 34.07143,34.07143 0 0 1 -34.07143,34.07143 34.07143,34.07143 0 0 1 -34.071427,-34.07143 34.07143,34.07143 0 0 1 34.071427,-34.07143 34.07143,34.07143 0 0 1 34.07143,34.07143 z"
           id="path1713" />
        <path
           inkscape:connector-curvature="0"
           style="color:#000000;font-style:normal;font-variant:normal;font-weight:normal;font-stretch:normal;font-size:medium;line-height:normal;font-family:sans-serif;font-variant-ligatures:normal;font-variant-position:normal;font-variant-caps:normal;font-variant-numeric:normal;font-variant-alternates:normal;font-feature-settings:normal;text-indent:0;text-align:start;text-decoration:none;text-decoration-line:none;text-decoration-style:solid;text-decoration-color:#000000;letter-spacing:normal;word-spacing:normal;text-transform:none;writing-mode:lr-tb;direction:ltr;text-orientation:mixed;dominant-baseline:auto;baseline-shift:baseline;text-anchor:start;white-space:normal;shape-padding:0;clip-rule:nonzero;display:inline;overflow:visible;visibility:visible;opacity:1;isolation:auto;mix-blend-mode:normal;color-interpolation:sRGB;color-interpolation-filters:linearRGB;solid-color:#000000;solid-opacity:1;vector-effect:none;fill:#32b5b5;fill-opacity:1;fill-rule:nonzero;stroke:none;stroke-width:50;stroke-linecap:round;stroke-linejoin:miter;stroke-miterlimit:4;stroke-dasharray:none;stroke-dashoffset:0;stroke-opacity:1;color-rendering:auto;image-rendering:auto;shape-rendering:auto;text-rendering:auto;enable-background:accumulate"
           d="M 114.41992,91.501953 A 25.0025,25.0025 0 0 0 94.294922,103.26172 l -33.808594,52.60742 a 25.0025,25.0025 0 1 0 42.064452,27.03125 l 33.80664,-52.60742 a 25.0025,25.0025 0 0 0 -21.9375,-38.791017 z"
           id="path1715" />
        <path
           inkscape:connector-curvature="0"
           style="color:#000000;font-style:normal;font-variant:normal;font-weight:normal;font-stretch:normal;font-size:medium;line-height:normal;font-family:sans-serif;font-variant-ligatures:normal;font-variant-position:normal;font-variant-caps:normal;font-variant-numeric:normal;font-variant-alternates:normal;font-feature-settings:normal;text-indent:0;text-align:start;text-decoration:none;text-decoration-line:none;text-decoration-style:solid;text-decoration-color:#000000;letter-spacing:normal;word-spacing:normal;text-transform:none;writing-mode:lr-tb;direction:ltr;text-orientation:mixed;dominant-baseline:auto;baseline-shift:baseline;text-anchor:start;white-space:normal;shape-padding:0;clip-rule:nonzero;display:inline;overflow:visible;visibility:visible;opacity:1;isolation:auto;mix-blend-mode:normal;color-interpolation:sRGB;color-interpolation-filters:linearRGB;solid-color:#000000;solid-opacity:1;vector-effect:none;fill:#32b5b5;fill-opacity:1;fill-rule:nonzero;stroke:none;stroke-width:50;stroke-linecap:round;stroke-linejoin:miter;stroke-miterlimit:4;stroke-dasharray:none;stroke-dashoffset:0;stroke-opacity:1;color-rendering:auto;image-rendering:auto;shape-rendering:auto;text-rendering:auto;enable-background:accumulate"
           d="m 116.75586,222.40234 a 25.0025,25.0025 0 0 0 -6.79297,49.07618 l 63.63867,18.82031 a 25.0025,25.0025 0 1 0 14.17969,-47.94727 l -63.63867,-18.82031 a 25.0025,25.0025 0 0 0 -7.38672,-1.12891 z"
           id="path1717" />
      </g>
      <g
         style="font-style:normal;font-weight:normal;font-size:44.3423px;line-height:1.25;font-family:sans-serif;letter-spacing:0px;word-spacing:0px;fill:#32b5b5;fill-opacity:1;stroke:none;stroke-width:1.10856"
         id="text1766"
         aria-label="ntentan">
        <path
           id="path845"
           style="font-style:normal;font-variant:normal;font-weight:bold;font-stretch:normal;font-size:212.843px;font-family:'varela round';-inkscape-font-specification:'varela round Bold';fill:#32b5b5;fill-opacity:1;stroke-width:1.10856"
           d="m 92.794795,149.50374 c -18.943027,0 -30.649393,9.79078 -39.588799,19.58155 v -8.72656 c 0,-5.53392 -4.469703,-9.79078 -9.790778,-9.79078 -5.321075,0 -9.577935,4.25686 -9.577935,9.79078 v 91.30965 c 0,5.32107 4.25686,9.57793 9.577935,9.57793 5.321075,0 9.790778,-4.25686 9.790778,-9.57793 v -63.8529 c 8.51372,-10.64215 19.581557,-20.43293 34.906253,-20.43293 16.601751,0 23.412731,9.79078 23.412731,25.96685 v 58.31898 c 0,5.32107 4.25686,9.57793 9.57793,9.57793 5.32108,0 9.79078,-4.25686 9.79078,-9.57793 v -60.44741 c 0,-22.77421 -13.83479,-41.71723 -38.098895,-41.71723 z" />
        <path
           id="path847"
           style="font-style:normal;font-variant:normal;font-weight:bold;font-stretch:normal;font-size:212.843px;font-family:'varela round';-inkscape-font-specification:'varela round Bold';fill:#32b5b5;fill-opacity:1;stroke-width:1.10856"
           d="m 215.60471,243.3675 c -3.61833,0 -5.95961,1.91559 -12.77058,1.91559 -5.32108,0 -13.8348,-0.21284 -13.8348,-12.77058 v -64.27859 h 24.05126 c 4.68255,0 8.30088,-3.61833 8.30088,-8.30088 0,-4.68254 -3.61833,-8.30087 -8.30088,-8.30087 h -24.05126 v -17.02744 c 0,-2.34128 -1.70274,-4.25686 -4.04402,-4.25686 -1.70274,0 -2.9798,1.27705 -3.61833,1.91558 l -28.94664,28.30812 c -1.27706,1.06422 -1.91559,2.34128 -1.91559,3.61833 0,2.34128 1.70274,4.04402 4.04402,4.04402 h 15.11185 v 65.98133 c 0,26.39253 21.07146,28.09528 31.07508,28.09528 6.81097,0 12.55773,-1.4899 17.66597,-3.83118 2.9798,-1.4899 4.89538,-3.83117 4.89538,-7.4495 0,-4.4697 -3.83117,-7.66235 -7.66234,-7.66235 z" />
        <path
           id="path849"
           style="font-style:normal;font-variant:normal;font-weight:bold;font-stretch:normal;font-size:212.843px;font-family:'varela round';-inkscape-font-specification:'varela round Bold';fill:#32b5b5;fill-opacity:1;stroke-width:1.10856"
           d="m 327.34705,236.76937 c -1.48991,0 -2.55412,0.21284 -3.83118,0.85137 -7.87519,4.04402 -15.96322,6.59813 -28.7338,6.59813 -22.98705,0 -35.1191,-12.34489 -37.24753,-31.50076 h 72.15378 c 5.9596,0 9.79078,-4.25686 9.79078,-9.57794 0,-28.30812 -17.87882,-53.63643 -50.65664,-53.63643 -35.33194,0 -50.86948,27.66959 -50.86948,56.40339 0,35.75763 20.43293,56.4034 55.12634,56.4034 18.51734,0 27.88244,-4.04402 37.24753,-9.36509 2.9798,-1.70275 5.53392,-4.46971 5.53392,-7.87519 0,-4.89539 -4.04402,-8.30088 -8.51372,-8.30088 z m -38.52459,-70.87672 c 13.62195,0 30.22371,8.9394 31.50077,31.07508 h -62.78869 c 1.27706,-22.13568 17.66597,-31.07508 31.28792,-31.07508 z" />
        <path
           id="path851"
           style="font-style:normal;font-variant:normal;font-weight:bold;font-stretch:normal;font-size:212.843px;font-family:'varela round';-inkscape-font-specification:'varela round Bold';fill:#32b5b5;fill-opacity:1;stroke-width:1.10856"
           d="m 424.61624,149.50374 c -18.94303,0 -30.6494,9.79078 -39.5888,19.58155 v -8.72656 c 0,-5.53392 -4.4697,-9.79078 -9.79078,-9.79078 -5.32108,0 -9.57794,4.25686 -9.57794,9.79078 v 91.30965 c 0,5.32107 4.25686,9.57793 9.57794,9.57793 5.32108,0 9.79078,-4.25686 9.79078,-9.57793 v -63.8529 c 8.51372,-10.64215 19.58155,-20.43293 34.90625,-20.43293 16.60175,0 23.41273,9.79078 23.41273,25.96685 v 58.31898 c 0,5.32107 4.25686,9.57793 9.57794,9.57793 5.32107,0 9.79077,-4.25686 9.79077,-9.57793 v -60.44741 c 0,-22.77421 -13.83479,-41.71723 -38.09889,-41.71723 z" />
        <path
           id="path853"
           style="font-style:normal;font-variant:normal;font-weight:bold;font-stretch:normal;font-size:212.843px;font-family:'varela round';-inkscape-font-specification:'varela round Bold';fill:#32b5b5;fill-opacity:1;stroke-width:1.10856"
           d="m 547.42613,243.3675 c -3.61833,0 -5.9596,1.91559 -12.77058,1.91559 -5.32107,0 -13.83479,-0.21284 -13.83479,-12.77058 v -64.27859 h 24.05126 c 4.68254,0 8.30087,-3.61833 8.30087,-8.30088 0,-4.68254 -3.61833,-8.30087 -8.30087,-8.30087 h -24.05126 v -17.02744 c 0,-2.34128 -1.70275,-4.25686 -4.04402,-4.25686 -1.70274,0 -2.9798,1.27705 -3.61833,1.91558 l -28.94665,28.30812 c -1.27706,1.06422 -1.91559,2.34128 -1.91559,3.61833 0,2.34128 1.70275,4.04402 4.04402,4.04402 h 15.11185 v 65.98133 c 0,26.39253 21.07146,28.09528 31.07508,28.09528 6.81098,0 12.55774,-1.4899 17.66597,-3.83118 2.9798,-1.4899 4.89539,-3.83117 4.89539,-7.4495 0,-4.4697 -3.83117,-7.66235 -7.66235,-7.66235 z" />
        <path
           id="path855"
           style="font-style:normal;font-variant:normal;font-weight:bold;font-stretch:normal;font-size:212.843px;font-family:'varela round';-inkscape-font-specification:'varela round Bold';fill:#32b5b5;fill-opacity:1;stroke-width:1.10856"
           d="m 617.02559,149.50374 c -15.11185,0 -26.81822,3.40549 -36.82184,7.66235 -3.61833,1.4899 -5.53392,4.4697 -5.53392,8.08803 0,4.68255 3.61833,8.08803 7.87519,8.08803 0.85137,0 1.91559,-0.21284 2.76696,-0.42568 7.87519,-2.55412 16.38891,-5.10823 28.30812,-5.10823 19.15587,0 28.52096,7.4495 28.52096,26.39253 v 1.70274 h -25.754 c -33.20351,0 -48.95389,14.47333 -48.95389,34.48057 0,20.00724 16.17607,31.92645 34.69341,31.92645 20.00724,0 32.35213,-8.30088 40.01448,-16.17607 v 5.53392 c 0,5.32107 4.25686,9.57793 9.57794,9.57793 5.32107,0 9.79078,-4.25686 9.79078,-9.57793 v -60.23457 c 0,-20.85862 -13.40911,-41.93007 -44.48419,-41.93007 z m -7.66235,95.77935 c -17.24028,0 -22.56136,-7.87519 -22.56136,-17.02744 0,-12.13205 12.13205,-16.8146 32.1393,-16.8146 h 23.19988 v 17.87881 c -7.23666,8.30088 -19.58155,15.96323 -32.77782,15.96323 z" />
        <path
           id="path857"
           style="font-style:normal;font-variant:normal;font-weight:bold;font-stretch:normal;font-size:212.843px;font-family:'varela round';-inkscape-font-specification:'varela round Bold';fill:#32b5b5;fill-opacity:1;stroke-width:1.10856"
           d="m 753.24475,149.50374 c -18.94303,0 -30.6494,9.79078 -39.5888,19.58155 v -8.72656 c 0,-5.53392 -4.46971,-9.79078 -9.79078,-9.79078 -5.32108,0 -9.57794,4.25686 -9.57794,9.79078 v 91.30965 c 0,5.32107 4.25686,9.57793 9.57794,9.57793 5.32107,0 9.79078,-4.25686 9.79078,-9.57793 v -63.8529 c 8.51372,-10.64215 19.58155,-20.43293 34.90625,-20.43293 16.60175,0 23.41273,9.79078 23.41273,25.96685 v 58.31898 c 0,5.32107 4.25686,9.57793 9.57794,9.57793 5.32107,0 9.79077,-4.25686 9.79077,-9.57793 v -60.44741 c 0,-22.77421 -13.83479,-41.71723 -38.09889,-41.71723 z" />
      </g>
    </g>
  </g>
</svg>
