<?xml version="1.0" encoding="UTF-8" standalone="no"?>
<!-- Created with Inkscape (http://www.inkscape.org/) -->

<svg
   width="334.60263mm"
   height="75.384407mm"
   viewBox="0 0 334.60263 75.384407"
   version="1.1"
   id="svg1"
   sodipodi:docname="logo.svg"
   inkscape:version="1.3 (0e150ed, 2023-07-21)"
   xmlns:inkscape="http://www.inkscape.org/namespaces/inkscape"
   xmlns:sodipodi="http://sodipodi.sourceforge.net/DTD/sodipodi-0.dtd"
   xmlns="http://www.w3.org/2000/svg"
   xmlns:svg="http://www.w3.org/2000/svg">
  <sodipodi:namedview
     id="namedview1"
     pagecolor="#ffffff"
     bordercolor="#000000"
     borderopacity="0.25"
     inkscape:showpageshadow="2"
     inkscape:pageopacity="0.0"
     inkscape:pagecheckerboard="true"
     inkscape:deskcolor="#d1d1d1"
     inkscape:document-units="mm"
     inkscape:zoom="0.55685651"
     inkscape:cx="686.89149"
     inkscape:cy="468.70243"
     inkscape:window-width="1920"
     inkscape:window-height="1027"
     inkscape:window-x="1920"
     inkscape:window-y="25"
     inkscape:window-maximized="1"
     inkscape:current-layer="layer1" />
  <defs
     id="defs1" />
  <g
     inkscape:label="Layer 1"
     inkscape:groupmode="layer"
     id="layer1"
     transform="translate(-8.5524721,-9.0712665)">
    <g
       id="g9"
       transform="translate(2.0818197)"
       style="fill:#ffffff;fill-opacity:1">
      <path
         style="fill:#ffffff;fill-opacity:1;stroke-width:0.264583"
         d="m 92.017063,31.445855 -10.46086,7.58455 a 30,30 0 0 1 4.841048,14.900382 H 99.340647 A 43,43 0 0 0 92.017063,31.445855 Z"
         id="path8" />
      <path
         style="fill:#ffffff;fill-opacity:1;stroke-width:0.264583"
         d="M 20.860683,31.445855 A 43,43 0 0 0 13.537099,53.930787 H 26.550775 A 30,30 0 0 1 31.350999,39.051592 Z"
         id="path7" />
      <path
         style="fill:#ffffff;fill-opacity:1;stroke-width:0.264583"
         d="m 71.124799,15.103701 -4.009575,12.312943 a 30,30 0 0 1 4.323767,2.033467 30,30 0 0 1 8.352462,7.154085 L 90.309674,28.976755 A 43,43 0 0 0 77.938853,18.191884 43,43 0 0 0 71.124799,15.103701 Z"
         id="path6" />
      <path
         style="fill:#ffffff;fill-opacity:1;stroke-width:0.264583"
         d="m 41.752948,15.103701 a 43,43 0 0 0 -6.814054,3.088183 43,43 0 0 0 -12.370821,10.784871 l 10.582816,7.674467 a 30,30 0 0 1 8.287866,-7.201111 30,30 0 0 1 4.323767,-2.033467 z"
         id="path5" />
      <path
         style="fill:#ffffff;fill-opacity:1;stroke-width:0.264583"
         d="m 56.438873,9.0712665 c -4.008386,0.014466 -7.995061,0.5893341 -11.844238,1.7079065 l 4.034896,15.753804 c 5.115074,-1.379105 10.504128,-1.379105 15.619202,0 L 68.283628,10.779173 C 64.434285,9.6605529 60.447432,9.0856846 56.438873,9.0712665 Z"
         id="path1"
         sodipodi:nodetypes="cccccc" />
      <path
         style="fill:#ffffff;fill-opacity:1;stroke:#ff1f1f;stroke-dasharray:none;stroke-opacity:1"
         d="m 13.438914,12.430995 v 0"
         id="path4-58" />
      <rect
         style="fill:#ffffff;fill-opacity:1;stroke-width:0.262204"
         id="rect8"
         width="13.033359"
         height="12.934955"
         x="13.44401"
         y="56.469025" />
      <rect
         style="fill:#ffffff;fill-opacity:1;stroke-width:0.262204"
         id="rect8-2"
         width="13.033359"
         height="12.934955"
         x="86.469032"
         y="56.469025" />
    </g>
    <rect
       style="fill:#ffffff;fill-opacity:1;stroke-width:0.267435"
       id="rect9"
       width="100"
       height="13.066278"
       x="8.5524721"
       y="71.389397" />
    <path
       id="path1-7"
       style="font-variation-settings:normal;vector-effect:none;fill:#ff4b4b;fill-opacity:1;stroke:none;stroke-width:0.123034px;stroke-linecap:butt;stroke-linejoin:miter;stroke-miterlimit:4;stroke-dasharray:none;stroke-dashoffset:0;stroke-opacity:1;-inkscape-stroke:none;stop-color:#000000"
       d="m 62.045761,34.024488 c -6.189344,1.043511 -11.640683,4.93961 -15.425143,9.844277 -3.018828,4.002239 -4.848811,8.980061 -4.605733,14.029226 -0.112207,4.77731 3.670552,9.333344 8.310588,9.333344 4.640036,0 14.845011,0 18.177282,0 3.332271,0 6.555314,-3.670419 6.607374,-7.13976 0.05205,-3.46934 -1.261862,-7.07468 -3.66189,-9.89845 -3.00872,-3.460474 -7.342314,-6.209249 -12.262964,-6.945495 1.234857,0.258143 2.110868,1.162867 2.711508,2.102516 1.356761,2.314308 2.66496,4.952206 1.989964,7.610062 -0.14622,0.677827 -0.487636,1.299192 -0.968128,1.823705 -1.22007,-1.181291 -2.734169,-2.060631 -4.083607,-3.085589 -1.39135,-0.877839 -2.392066,-2.282839 -2.703102,-3.907541 -0.849028,-3.767084 0.796176,-7.506092 2.502751,-10.786251 0.755503,-1.331803 1.85786,-2.614169 3.4111,-2.980044 z"
       sodipodi:nodetypes="ccczzzccccccccc" />
    <path
       style="font-weight:300;font-size:28.0121px;line-height:1.25;font-family:Mitr;-inkscape-font-specification:'Mitr Light';letter-spacing:0px;word-spacing:0px;fill:#ffffff;stroke-width:0.603639"
       d="m 130.21067,71.195484 q -1.91726,0 -1.91726,-1.917264 V 29.65476 q 0,-1.917264 1.91726,-1.917264 h 26.58605 q 1.02256,0 1.406,0.383451 0.44736,0.383454 0.44736,1.342085 v 1.086451 q 0,1.022541 -0.44736,1.469901 -0.38344,0.383454 -1.406,0.383454 h -22.68761 v 14.699025 h 17.06365 q 1.02253,0 1.4699,0.383454 0.44736,0.383452 0.44736,1.342087 v 1.086446 q 0,1.022542 -0.44736,1.469904 -0.44737,0.383451 -1.4699,0.383451 H 134.10911 V 69.27822 q 0,0.95863 -0.44737,1.469901 -0.44736,0.447363 -1.46991,0.447363 z m 43.58577,0.958631 q -8.1164,0 -12.46219,-4.345797 -4.34582,-4.409708 -4.34582,-11.950948 0,-7.541239 4.34582,-11.887038 4.34579,-4.409708 12.46219,-4.409708 8.05253,0 12.39832,4.409708 4.40972,4.345799 4.40972,11.887038 0,7.54124 -4.40972,11.950948 -4.34579,4.345797 -12.39832,4.345797 z m 0,-4.473617 q 5.36835,0 8.18033,-3.003712 2.87591,-3.067623 2.87591,-8.819416 0,-5.687884 -2.812,-8.691598 -2.81198,-3.067623 -8.24424,-3.067623 -5.43225,0 -8.30813,3.067623 -2.81199,3.003714 -2.81199,8.691598 0,5.687884 2.81199,8.755507 2.87588,3.067621 8.30813,3.067621 z m 38.02584,4.473617 q -8.11643,0 -12.46222,-4.345797 -4.34582,-4.409708 -4.34582,-11.950948 0,-7.541239 4.34582,-11.887038 4.34579,-4.409708 12.46222,-4.409708 8.0525,0 12.39829,4.409708 4.40972,4.345799 4.40972,11.887038 0,7.54124 -4.40972,11.950948 -4.34579,4.345797 -12.39829,4.345797 z m 0,-4.473617 q 5.36832,0 8.18033,-3.003712 2.87588,-3.067623 2.87588,-8.819416 0,-5.687884 -2.81198,-8.691598 -2.812,-3.067623 -8.24423,-3.067623 -5.43226,0 -8.30816,3.067623 -2.81199,3.003714 -2.81199,8.691598 0,5.687884 2.81199,8.755507 2.8759,3.067621 8.30816,3.067621 z m 26.07484,3.514986 q -1.98118,0 -1.98118,-1.917264 V 42.116976 q 0,-0.894722 0.25564,-1.214267 0.31954,-0.383452 1.21426,-0.383452 h 2.109 q 1.406,0 1.406,1.342085 v 2.939803 q 4.53753,-5.240521 13.16521,-5.240521 5.24051,0 8.30813,2.74808 3.13155,2.684169 3.13155,8.180325 V 69.27822 q 0,0.95863 -0.44737,1.469901 -0.44735,0.447363 -1.46991,0.447363 h -1.91726 q -1.98118,0 -1.98118,-1.917264 V 50.808575 q 0,-3.77062 -1.78943,-5.304431 -1.72554,-1.533812 -5.62398,-1.533812 -2.62027,0 -5.11271,1.022541 -2.42854,0.958631 -3.96235,2.748078 -1.4699,1.789447 -1.4699,4.090163 V 69.27822 q 0,0.95863 -0.44735,1.469901 -0.44738,0.447363 -1.46991,0.447363 z m 50.42415,0.958631 q -8.11643,0 -12.46222,-4.345797 -4.34579,-4.409708 -4.34579,-11.950948 0,-7.541239 4.34579,-11.887038 4.34579,-4.409708 12.46222,-4.409708 8.0525,0 12.39831,4.409708 4.4097,4.345799 4.4097,11.887038 0,7.54124 -4.4097,11.950948 -4.34581,4.345797 -12.39831,4.345797 z m 0,-4.473617 q 5.36832,0 8.18033,-3.003712 2.87588,-3.067623 2.87588,-8.819416 0,-5.687884 -2.81198,-8.691598 -2.81198,-3.067623 -8.24423,-3.067623 -5.43225,0 -8.30814,3.067623 -2.812,3.003714 -2.812,8.691598 0,5.687884 2.812,8.755507 2.87589,3.067621 8.30814,3.067621 z m 38.02581,4.473617 q -8.11641,0 -12.46222,-4.345797 -4.34579,-4.409708 -4.34579,-11.950948 0,-7.541239 4.34579,-11.887038 4.34581,-4.409708 12.46222,-4.409708 8.05252,0 12.39831,4.409708 4.40972,4.345799 4.40972,11.887038 0,7.54124 -4.40972,11.950948 -4.34579,4.345797 -12.39831,4.345797 z m 0,-4.473617 q 5.36834,0 8.18033,-3.003712 2.87591,-3.067623 2.87591,-8.819416 0,-5.687884 -2.81199,-8.691598 -2.812,-3.067623 -8.24425,-3.067623 -5.43223,0 -8.30814,3.067623 -2.81198,3.003714 -2.81198,8.691598 0,5.687884 2.81198,8.755507 2.87591,3.067621 8.30814,3.067621 z"
       id="text1"
       aria-label="Foonoo" />
  </g>
</svg>
